<svg id="Layer_1" data-name="Layer 1" xmlns="http://www.w3.org/2000/svg" viewBox="0 0 349.686 421.625">
  <defs>
    <style>
      .cls-1 {
        fill: #1a1a1a;
      }

      .cls-2 {
        fill: #008034;
      }

      .cls-3 {
        fill: #6dc17d;
      }

      .cls-4 {
        fill: #005e18;
      }

      .cls-5 {
        fill: #36b059;
      }

      .cls-6 {
        opacity: 0.98;
        font-size: 78px;
        font-family: Poppins-Bold, Poppins;
        font-weight: 700;
      }
    </style>
  </defs>
  <circle cx="174.843" cy="144.044" r="144.044"/>
  <path class="cls-1" d="M261.18,351.484A144.07,144.07,0,0,0,398.509,228.589l-80.325-80.7-80.451,57.848-24.655,8.193L174.49,257.476l21.685,22-1.765,4.158Z" transform="translate(-81.157 -63.5)"/>
  <path class="cls-2" d="M347.3,223.508l-28.551-74.757a2.426,2.426,0,0,0-3.131-1.4L166.1,204.453a2.423,2.423,0,0,0-1.4,3.131l28.551,74.758a2.421,2.421,0,0,0,3.131,1.4l149.516-57.1A2.424,2.424,0,0,0,347.3,223.508Z" transform="translate(-81.157 -63.5)"/>
  <path class="cls-3" d="M337.13,210.476l-17.276-45.234a15.985,15.985,0,0,1-17.269-7.724L182.593,203.346a15.989,15.989,0,0,1-7.724,17.27l17.277,45.234a15.985,15.985,0,0,1,17.269,7.724l119.991-45.828A15.99,15.99,0,0,1,337.13,210.476Z" transform="translate(-81.157 -63.5)"/>
  <path class="cls-4" d="M336.1,172.988H176.021a2.425,2.425,0,0,0-2.425,2.425v80.136a2.425,2.425,0,0,0,2.425,2.425H336.1a2.425,2.425,0,0,0,2.425-2.425V175.413A2.425,2.425,0,0,0,336.1,172.988Z" transform="translate(-81.157 -63.5)"/>
  <path class="cls-2" d="M255.7,172.988h-79.68a2.425,2.425,0,0,0-2.425,2.425v80.136a2.425,2.425,0,0,0,2.425,2.425H255.7V172.988Z" transform="translate(-81.157 -63.5)"/>
  <path class="cls-3" d="M191.3,178.03a16,16,0,0,1-13.378,13.393V239.9A16,16,0,0,1,191.3,253.293H319.747A16,16,0,0,1,333.125,239.9V191.423a16,16,0,0,1-13.378-13.393Z" transform="translate(-81.157 -63.5)"/>
  <path class="cls-5" d="M319.778,178.03H255.7v75.263h64.077A15.979,15.979,0,0,1,333.125,239.9V191.423A15.979,15.979,0,0,1,319.778,178.03Z" transform="translate(-81.157 -63.5)"/>
  <ellipse class="cls-2" cx="174.843" cy="152.046" rx="19.4" ry="29.1"/>
  <path class="cls-4" d="M256.024,186.446c-.108,0-.215.01-.323.013v58.175c.108,0,.215.013.323.013,10.715,0,19.4-13.028,19.4-29.1S266.739,186.446,256.024,186.446Z" transform="translate(-81.157 -63.5)"/>
  <text class="cls-6" transform="translate(3.233 374.356) scale(0.972 1)">ROASTLY</text>
</svg>
