<svg id="Layer_1" data-name="Layer 1" xmlns="http://www.w3.org/2000/svg" viewBox="0 0 126.289 153.044">
  <defs>
    <style>
      .cls-1 {
        fill: #1a1a1a;
      }

      .cls-2 {
        fill: #008034;
      }

      .cls-3 {
        fill: #6dc17d;
      }

      .cls-4 {
        fill: #005e18;
      }

      .cls-5 {
        fill: #36b059;
      }

      .cls-6 {
        opacity: 0.98;
        font-size: 28.7px;
        font-family: Poppins-Bold, Poppins;
        font-weight: 700;
      }
    </style>
  </defs>
  <g>
    <circle cx="63.145" cy="52.021" r="52.021"/>
    <path class="cls-1" d="M97.871,130.484a52.032,52.032,0,0,0,49.6-44.384L118.458,56.956,89.4,77.847l-8.9,2.959L66.563,96.533l7.831,7.946-.637,1.5Z" transform="translate(-32.855 -26.479)"/>
    <path class="cls-2" d="M128.972,84.265l-10.311-27a.877.877,0,0,0-1.131-.506l-54,20.623a.876.876,0,0,0-.505,1.131l10.311,27a.875.875,0,0,0,1.131.506l54-20.623A.876.876,0,0,0,128.972,84.265Z" transform="translate(-32.855 -26.479)"/>
    <path class="cls-3" d="M125.3,79.559l-6.239-16.336a5.773,5.773,0,0,1-6.237-2.79L69.489,76.984A5.773,5.773,0,0,1,66.7,83.221l6.239,16.336a5.775,5.775,0,0,1,6.237,2.79L122.511,85.8A5.774,5.774,0,0,1,125.3,79.559Z" transform="translate(-32.855 -26.479)"/>
    <path class="cls-4" d="M124.929,66.02H67.116a.876.876,0,0,0-.876.876V95.837a.876.876,0,0,0,.876.876h57.813a.876.876,0,0,0,.875-.876V66.9A.876.876,0,0,0,124.929,66.02Z" transform="translate(-32.855 -26.479)"/>
    <path class="cls-2" d="M95.892,66.02H67.116a.876.876,0,0,0-.876.876V95.837a.876.876,0,0,0,.876.876H95.892V66.02Z" transform="translate(-32.855 -26.479)"/>
    <path class="cls-3" d="M72.632,67.841A5.778,5.778,0,0,1,67.8,72.678V90.185a5.778,5.778,0,0,1,4.831,4.837h46.39a5.779,5.779,0,0,1,4.832-4.837V72.678a5.779,5.779,0,0,1-4.832-4.837Z" transform="translate(-32.855 -26.479)"/>
    <path class="cls-5" d="M119.033,67.841H95.892V95.022h23.141a5.773,5.773,0,0,1,4.821-4.837V72.678A5.773,5.773,0,0,1,119.033,67.841Z" transform="translate(-32.855 -26.479)"/>
    <ellipse class="cls-2" cx="63.145" cy="54.911" rx="7.006" ry="10.509"/>
    <path class="cls-4" d="M96.009,70.881c-.04,0-.078,0-.117,0V91.9c.039,0,.077.005.117.005,3.869,0,7.006-4.705,7.006-10.51S99.878,70.881,96.009,70.881Z" transform="translate(-32.855 -26.479)"/>
    <text class="cls-6" transform="translate(0 135.651) scale(0.972 1)">ROASTLY</text>
  </g>
</svg>
