<?xml version="1.0" encoding="UTF-8"?>
<svg version="1.1" xmlns="http://www.w3.org/2000/svg" width="192" height="192">
<path d="M0 0 C63.36 0 126.72 0 192 0 C192 63.36 192 126.72 192 192 C128.64 192 65.28 192 0 192 C0 128.64 0 65.28 0 0 Z " fill="#020001" transform="translate(0,0)"/>
<path d="M0 0 C5.79327694 3.1725088 8.69811684 7.35099508 12 13 C12.38414063 13.61359375 12.76828125 14.2271875 13.1640625 14.859375 C14.34143485 17.8743285 14.1894268 20.52865982 14.125 23.75 C14.10695312 24.92046875 14.08890625 26.0909375 14.0703125 27.296875 C14.04710937 28.18890625 14.02390625 29.0809375 14 30 C17.53586014 26.82679218 19.58578031 24.83256305 20 20 C20.66 20 21.32 20 22 20 C22.65357278 21.22506898 23.29748233 22.45529516 23.9375 23.6875 C24.47697266 24.71423828 24.47697266 24.71423828 25.02734375 25.76171875 C27.06410572 30.44872522 27.16041204 34.99705193 27.1875 40.0625 C27.20167969 41.27035156 27.21585938 42.47820312 27.23046875 43.72265625 C27.01494866 46.78742498 26.61519102 48.43995415 25 51 C25.99 50.67 26.98 50.34 28 50 C26.67738003 56.8473138 24.81311509 61.20020954 19.24609375 65.53125 C10.13613859 71.4883685 0.10831339 73.37177978 -10.5625 71.3125 C-17.79912384 68.54942544 -21.69694889 64.9872235 -25 58 C-27.75663911 48.61609838 -25.55054633 41.91811586 -20.95703125 33.49609375 C-20.30499084 32.33055941 -19.65265191 31.16519203 -19 30 C-18.40574219 28.89785156 -17.81148437 27.79570313 -17.19921875 26.66015625 C-15.81682523 24.0966246 -14.41749991 21.54423061 -13 19 C-12.34 19 -11.68 19 -11 19 C-10.67 20.65 -10.34 22.3 -10 24 C-4.51365555 16.01017799 -0.63245057 9.81388809 0 0 Z " fill="#F99D03" transform="translate(95,23)"/>
<path d="M0 0 C1.32 0.33 2.64 0.66 4 1 C4 2.32 4 3.64 4 5 C2.68 5.33 1.36 5.66 0 6 C0 6.99 0 7.98 0 9 C-0.66 9.33 -1.32 9.66 -2 10 C-2 10.66 -2 11.32 -2 12 C-1.01 12 -0.02 12 1 12 C1.02465622 16.25414623 1.04283899 20.50825498 1.05493164 24.76245117 C1.05997101 26.21070073 1.06680253 27.65894517 1.07543945 29.10717773 C1.08752247 31.18474588 1.09323211 33.26224697 1.09765625 35.33984375 C1.10289307 36.59144287 1.10812988 37.84304199 1.11352539 39.13256836 C1 42 1 42 0 43 C-2.64 43 -5.28 43 -8 43 C-8.495 30.625 -8.495 30.625 -9 18 C-9.99 18 -10.98 18 -12 18 C-11.67475342 18.55341064 -11.34950684 19.10682129 -11.0144043 19.67700195 C-9.84163881 22.36264903 -9.75610896 24.24638347 -9.76953125 27.16796875 C-9.77146484 28.14314453 -9.77339844 29.11832031 -9.77539062 30.12304688 C-9.79375977 31.63995117 -9.79375977 31.63995117 -9.8125 33.1875 C-9.81314453 34.21037109 -9.81378906 35.23324219 -9.81445312 36.28710938 C-9.85967749 43.85967749 -9.85967749 43.85967749 -11 45 C-13.71793945 45.07296482 -16.42257315 44.99626869 -19.140625 44.9375 C-21.89421199 44.99768769 -24.31825978 45.40816768 -27 46 C-27.66 46 -28.32 46 -29 46 C-29.33 45.34 -29.66 44.68 -30 44 C-33.98565046 43.39386091 -37.97274969 43.25435265 -42 43 C-42.66 39.04 -43.32 35.08 -44 31 C-44.33 34.96 -44.66 38.92 -45 43 C-51.15234375 43.09765625 -51.15234375 43.09765625 -53 43 C-54 42 -54 42 -54.11352539 40.23413086 C-54.10828857 39.48526611 -54.10305176 38.73640137 -54.09765625 37.96484375 C-54.09443359 37.15595703 -54.09121094 36.34707031 -54.08789062 35.51367188 C-54.07951172 34.66353516 -54.07113281 33.81339844 -54.0625 32.9375 C-54.05798828 32.08349609 -54.05347656 31.22949219 -54.04882812 30.34960938 C-54.03700373 28.23304337 -54.01906769 26.11651315 -54 24 C-52.76121094 23.70996094 -51.52242188 23.41992188 -50.24609375 23.12109375 C-45.88215761 22.02746461 -42.74170621 20.51992459 -39 18 C-38.67 17.01 -38.34 16.02 -38 15 C-37.01 14.67 -36.02 14.34 -35 14 C-34.34 14.33 -33.68 14.66 -33 15 C-33 15.99 -33 16.98 -33 18 C-28.84525709 20.01442081 -25.59750165 20.55487089 -21 20 C-18.33888479 18.67472238 -16.03090662 17.18006925 -14 15 C-13.82726562 14.30390625 -13.65453125 13.6078125 -13.4765625 12.890625 C-13.31929687 12.26671875 -13.16203125 11.6428125 -13 11 C-11.0187415 10.27954236 -9.01495907 9.61998741 -7 9 C-3.13353058 6.45164515 -1.35680268 4.44044513 0 0 Z " fill="#1C0A00" transform="translate(123,90)"/>
<path d="M0 0 C2 2 2 2 2.1328125 5.046875 C2.13023438 6.26890625 2.12765625 7.4909375 2.125 8.75 C2.27539063 13.85575935 2.27539063 13.85575935 4.76953125 18.08203125 C6.88453977 19.58770363 6.88453977 19.58770363 9.08984375 20.69140625 C11.66507097 22.45562122 12.03565807 24.05884098 13 27 C13.24050903 29.42353821 13.24050903 29.42353821 13.22705078 31.97387695 C13.22689972 32.93449539 13.22674866 33.89511383 13.22659302 34.88484192 C13.21627045 35.9089769 13.20594788 36.93311188 13.1953125 37.98828125 C13.1924826 39.04661667 13.18965271 40.10495209 13.18673706 41.19535828 C13.1755629 44.56785498 13.15046307 47.94008387 13.125 51.3125 C13.11496664 53.6022097 13.10584141 55.89192357 13.09765625 58.18164062 C13.0756326 63.78785143 13.04218236 69.39390658 13 75 C12.01 75.495 12.01 75.495 11 76 C9.9590934 77.64142963 8.95495674 79.30712215 8 81 C7.87625 80.360625 7.7525 79.72125 7.625 79.0625 C7.41875 78.381875 7.2125 77.70125 7 77 C6.01 76.505 6.01 76.505 5 76 C5.33 75.67 5.66 75.34 6 75 C5.75638341 73.13013581 5.50980523 71.26061399 5.24902344 69.39306641 C4.71734282 64.28371988 5.04457572 59.10897016 5.21484375 53.98242188 C5.22902344 53.12583984 5.24320313 52.26925781 5.2578125 51.38671875 C5.2798877 50.61545654 5.30196289 49.84419434 5.32470703 49.04956055 C4.91595118 46.46948131 3.8906769 45.72114434 2 44 C2 43.34 2 42.68 2 42 C3.32 42 4.64 42 6 42 C5.505 40.02 5.505 40.02 5 38 C4.01 38 3.02 38 2 38 C1.79375 38.721875 1.5875 39.44375 1.375 40.1875 C-0.44236008 43.90482744 -2.60677305 45.67131484 -6 48 C-8.875 48.3125 -8.875 48.3125 -11 48 C-11.020625 48.721875 -11.04125 49.44375 -11.0625 50.1875 C-12.26633008 53.79899025 -13.89652455 55.01449443 -17.03125 57.05078125 C-20.18313036 58.57043785 -22.58095599 58.50652504 -26 58 C-28.9375 56.6875 -28.9375 56.6875 -31 55 C-31 54.01 -31 53.02 -31 52 C-32.65 52 -34.3 52 -36 52 C-36.11794922 52.90492187 -36.11794922 52.90492187 -36.23828125 53.828125 C-37.50339878 57.43533189 -40.38452767 58.33055599 -43.6328125 60.02734375 C-46.54041208 61.22205051 -48.89070333 61.39862778 -52 61 C-52 62.65 -52 64.3 -52 66 C-53.0625 64.1875 -53.0625 64.1875 -54 62 C-53.67 61.01 -53.34 60.02 -53 59 C-50.29120665 57.64560332 -47.99066732 57.93498549 -45 58 C-45.33 57.195625 -45.66 56.39125 -46 55.5625 C-47 53 -47 53 -47 52 C-46.37351562 51.97421875 -45.74703125 51.9484375 -45.1015625 51.921875 C-44.28429687 51.86515625 -43.46703125 51.8084375 -42.625 51.75 C-41.81289062 51.70359375 -41.00078125 51.6571875 -40.1640625 51.609375 C-37.83582141 51.21286384 -37.83582141 51.21286384 -36.7734375 49.078125 C-36.51820312 48.39234375 -36.26296875 47.7065625 -36 47 C-35.67 46.34 -35.34 45.68 -35 45 C-36.32 45.99 -37.64 46.98 -39 48 C-39.66 47.67 -40.32 47.34 -41 47 C-41 46.01 -41 45.02 -41 44 C-41.99 43.67 -42.98 43.34 -44 43 C-44 42.34 -44 41.68 -44 41 C-44.99 41 -45.98 41 -47 41 C-47.33 41.66 -47.66 42.32 -48 43 C-48 40 -48 40 -46 37 C-45.67 36.34 -45.34 35.68 -45 35 C-44.32904297 35.52400391 -44.32904297 35.52400391 -43.64453125 36.05859375 C-36.86485451 41.16142081 -30.96974989 41.59599794 -22.61328125 40.76171875 C-14.96100911 39.57243313 -7.03580628 36.10852241 -2 30 C-1.00626561 27.7396956 -1.00626561 27.7396956 -0.3125 25.3125 C0.06455078 24.10013672 0.06455078 24.10013672 0.44921875 22.86328125 C0.63097656 22.24839844 0.81273437 21.63351563 1 21 C0.34 21 -0.32 21 -1 21 C-0.83701416 20.42475586 -0.67402832 19.84951172 -0.50610352 19.25683594 C-0.00962472 17.04291893 0.11479744 15.15326203 0.09765625 12.890625 C0.09443359 12.13652344 0.09121094 11.38242188 0.08789062 10.60546875 C0.07951172 9.82816406 0.07113281 9.05085938 0.0625 8.25 C0.05798828 7.45722656 0.05347656 6.66445313 0.04882812 5.84765625 C0.03708565 3.89840492 0.01915146 1.94919262 0 0 Z " fill="#141418" transform="translate(121,53)"/>
<path d="M0 0 C5.79327694 3.1725088 8.69811684 7.35099508 12 13 C12.38414063 13.61359375 12.76828125 14.2271875 13.1640625 14.859375 C14.34143485 17.8743285 14.1894268 20.52865982 14.125 23.75 C14.10695312 24.92046875 14.08890625 26.0909375 14.0703125 27.296875 C14.04710937 28.18890625 14.02390625 29.0809375 14 30 C17.53586014 26.82679218 19.58578031 24.83256305 20 20 C20.66 20 21.32 20 22 20 C26.09478486 27.67534092 27.87997175 34.20028252 27 43 C26.34 43.99 25.68 44.98 25 46 C25 44.35 25 42.7 25 41 C24.34 41 23.68 41 23 41 C22.505 37.04 22.505 37.04 22 33 C19.66924071 33.95865509 19.66924071 33.95865509 18 37 C15.8359375 37.29296875 15.8359375 37.29296875 13.375 37.1875 C12.55773437 37.16042969 11.74046875 37.13335937 10.8984375 37.10546875 C10.27195313 37.07066406 9.64546875 37.03585938 9 37 C9.04125 35.9275 9.0825 34.855 9.125 33.75 C9.02465112 29.50257632 9.02465112 29.50257632 7 26 C5.12809069 25.11265814 5.12809069 25.11265814 3 25 C1.28452152 26.18519909 1.28452152 26.18519909 -0.125 27.9375 C-1.04956579 28.98901394 -2.00282632 30.01707166 -3 31 C-3.66 31 -4.32 31 -5 31 C-5 31.66 -5 32.32 -5 33 C-5.66 33 -6.32 33 -7 33 C-7 33.66 -7 34.32 -7 35 C-7.66 35 -8.32 35 -9 35 C-11.12046792 38.53411321 -11.53199289 41.94393835 -12 46 C-12.99 46 -13.98 46 -15 46 C-15.33 44.35 -15.66 42.7 -16 41 C-16.66 41 -17.32 41 -18 41 C-18.89820163 44.8586742 -19.16418356 48.47836767 -19.1875 52.4375 C-19.20167969 53.52933594 -19.21585937 54.62117188 -19.23046875 55.74609375 C-18.87762311 60.7277958 -18.12151255 63.98529816 -14.375 67.375 C-13.59125 67.91125 -12.8075 68.4475 -12 69 C-16.8628852 68.58318127 -18.86486307 66.63015855 -22 63 C-26.02894244 57.10047713 -27.13022416 51.05000477 -26 44 C-24.04645951 39.11614877 -21.56473729 34.57887487 -19 30 C-18.40574219 28.89785156 -17.81148437 27.79570313 -17.19921875 26.66015625 C-15.81682523 24.0966246 -14.41749991 21.54423061 -13 19 C-12.34 19 -11.68 19 -11 19 C-10.67 20.65 -10.34 22.3 -10 24 C-4.51365555 16.01017799 -0.63245057 9.81388809 0 0 Z " fill="#FCC007" transform="translate(95,23)"/>
<path d="M0 0 C1 2 1 2 1 4 C1.495 4.495 1.99 4.99 2.5 5.5 C2.995 5.995 3.49 6.49 4 7 C4 7.66 4 8.32 4 9 C6.832168 9.33448259 6.832168 9.33448259 10 9 C12.27144074 7.14567913 12.27144074 7.14567913 14 5 C14.66 4.67 15.32 4.34 16 4 C17.2019586 10.22833095 16.93161919 13.37129115 14 19 C13.34 19 12.68 19 12 19 C12 19.66 12 20.32 12 21 C12.99 21 13.98 21 15 21 C15 20.34 15 19.68 15 19 C15.99 19 16.98 19 18 19 C17.52157363 23.21015203 16.91091711 25.86516619 14 29 C6.93236216 33.71175856 1.32888276 34.14612075 -7 34 C-6.34 33.34 -5.68 32.68 -5 32 C-5.66 31.67 -6.32 31.34 -7 31 C-7 30.34 -7 29.68 -7 29 C-7.598125 28.9175 -8.19625 28.835 -8.8125 28.75 C-11.70156 27.75946514 -12.43409694 26.59797552 -14 24 C-14.29296875 21.421875 -14.29296875 21.421875 -14.1875 18.75 C-14.16042969 17.85796875 -14.13335937 16.9659375 -14.10546875 16.046875 C-14.07066406 15.37140625 -14.03585938 14.6959375 -14 14 C-12 14 -12 14 -9.4375 16.5 C-8.633125 17.325 -7.82875 18.15 -7 19 C-6.67 19 -6.34 19 -6 19 C-6.03480469 18.26394531 -6.06960937 17.52789062 -6.10546875 16.76953125 C-6.38278054 6.77310137 -6.38278054 6.77310137 -3 3 C-2.34 3 -1.68 3 -1 3 C-0.67 2.01 -0.34 1.02 0 0 Z " fill="#CD5301" transform="translate(95,61)"/>
<path d="M0 0 C2.68674602 0.36307379 4.55872304 0.66904228 6.75 2.3125 C9.12970668 5.52510402 9.12376235 8.97030737 9.11352539 12.86035156 C9.11344986 13.82104553 9.11337433 14.7817395 9.11329651 15.77154541 C9.10813522 16.80084167 9.10297394 17.83013794 9.09765625 18.890625 C9.0962413 19.95037537 9.09482635 21.01012573 9.09336853 22.10198975 C9.08777382 25.48468862 9.07522225 28.86732115 9.0625 32.25 C9.05748432 34.54426988 9.05292153 36.83854079 9.04882812 39.1328125 C9.03780611 44.75523094 9.02107321 50.37761073 9 56 C8.01 56.495 8.01 56.495 7 57 C5.9590934 58.64142963 4.95495674 60.30712215 4 62 C3.87625 61.360625 3.7525 60.72125 3.625 60.0625 C3.41875 59.381875 3.2125 58.70125 3 58 C2.34 57.67 1.68 57.34 1 57 C1.33 56.67 1.66 56.34 2 56 C1.75638341 54.13013581 1.50980523 52.26061399 1.24902344 50.39306641 C0.71734282 45.28371988 1.04457572 40.10897016 1.21484375 34.98242188 C1.22902344 34.12583984 1.24320313 33.26925781 1.2578125 32.38671875 C1.2798877 31.61545654 1.30196289 30.84419434 1.32470703 30.04956055 C0.91595118 27.46948131 -0.1093231 26.72114434 -2 25 C-2 24.34 -2 23.68 -2 23 C-0.68 23 0.64 23 2 23 C1.67 21.68 1.34 20.36 1 19 C0.01 19 -0.98 19 -2 19 C-2.3403125 20.1446875 -2.3403125 20.1446875 -2.6875 21.3125 C-4.29892715 24.61208893 -5.72309327 25.43956823 -9 27 C-11.3125 27.6875 -11.3125 27.6875 -13 28 C-13 27.34 -13 26.68 -13 26 C-14.32 26 -15.64 26 -17 26 C-17 25.34 -17 24.68 -17 24 C-16.34 23.67 -15.68 23.34 -15 23 C-15.33 22.34 -15.66 21.68 -16 21 C-9.25 17 -9.25 17 -7 17 C-6.71125 16.38125 -6.4225 15.7625 -6.125 15.125 C-5 13 -5 13 -3 11 C-2.3574765 8.93125966 -2.3574765 8.93125966 -2 7 C-1.34 7 -0.68 7 0 7 C0 4.69 0 2.38 0 0 Z " fill="#17161A" transform="translate(125,72)"/>
<path d="M0 0 C1.9375 0.6875 1.9375 0.6875 4 2 C5.03292325 5.66483276 5.11709412 9.16664613 5.09765625 12.95703125 C5.09443359 14.06884766 5.09121094 15.18066406 5.08789062 16.32617188 C5.07532227 18.0519043 5.07532227 18.0519043 5.0625 19.8125 C5.05798828 20.98232422 5.05347656 22.15214844 5.04882812 23.35742188 C5.0370693 26.23833358 5.02063426 29.11914044 5 32 C5.66 32.33 6.32 32.66 7 33 C6.67 33.33 6.34 33.66 6 34 C6.185625 34.804375 6.37125 35.60875 6.5625 36.4375 C6.7790625 37.7059375 6.7790625 37.7059375 7 39 C3.70097039 42.29902961 0.28698379 42.12745339 -4.22412109 42.16113281 C-5.78626846 42.17554413 -5.78626846 42.17554413 -7.37997437 42.19024658 C-9.05973862 42.1966214 -9.05973862 42.1966214 -10.7734375 42.203125 C-12.50818832 42.21167511 -12.50818832 42.21167511 -14.27798462 42.22039795 C-16.72405077 42.22984119 -19.1701296 42.23637924 -21.61621094 42.24023438 C-25.35374154 42.24994477 -29.09072331 42.28097737 -32.828125 42.3125 C-35.2057259 42.31902983 -37.58333074 42.32428038 -39.9609375 42.328125 C-41.63462906 42.3466452 -41.63462906 42.3466452 -43.34213257 42.36553955 C-49.06373585 42.34915079 -53.16390817 42.18343651 -58 39 C-58.07464064 36.38757769 -58.02712281 34.11753216 -57.4375 31.5625 C-56.90785149 28.460273 -57.44380278 26.08998453 -58 23 C-58.03762951 20.66697011 -58.04665734 18.33286681 -58 16 C-56.68 16.33 -55.36 16.66 -54 17 C-53.34 23.27 -52.68 29.54 -52 36 C-49.36 36.33 -46.72 36.66 -44 37 C-44 32.71 -44 28.42 -44 24 C-43.34 24.33 -42.68 24.66 -42 25 C-41.03929566 27.88211302 -40.89418117 29.69850044 -40.9375 32.6875 C-40.94652344 33.49574219 -40.95554687 34.30398437 -40.96484375 35.13671875 C-40.97644531 35.75160156 -40.98804687 36.36648437 -41 37 C-40.16855469 36.97679687 -39.33710937 36.95359375 -38.48046875 36.9296875 C-37.39378906 36.91164062 -36.30710937 36.89359375 -35.1875 36.875 C-34.10855469 36.85179687 -33.02960938 36.82859375 -31.91796875 36.8046875 C-29 37 -29 37 -26 39 C-24.13648715 38.81049022 -22.26990127 38.61741513 -20.42578125 38.2890625 C-16.939693 37.87365102 -13.51012425 37.96324477 -10 38 C-9.94172442 34.4375692 -9.90631115 30.87526181 -9.875 27.3125 C-9.85824219 26.30509766 -9.84148437 25.29769531 -9.82421875 24.25976562 C-9.81777344 23.28330078 -9.81132813 22.30683594 -9.8046875 21.30078125 C-9.79421387 20.40528564 -9.78374023 19.50979004 -9.77294922 18.5871582 C-10.02296544 15.73831743 -10.81983488 13.59105457 -12 11 C-10.35 11 -8.7 11 -7 11 C-7 19.58 -7 28.16 -7 37 C-4.36 36.67 -1.72 36.34 1 36 C1.33 26.1 1.66 16.2 2 6 C1.01 6 0.02 6 -1 6 C-0.67 4.02 -0.34 2.04 0 0 Z " fill="#0D090A" transform="translate(122,96)"/>
<path d="M0 0 C1.32 0 2.64 0 4 0 C5.75 2 5.75 2 7 4 C7.90298828 3.01773438 7.90298828 3.01773438 8.82421875 2.015625 C13.43923728 -0.91346425 17.47019989 -0.4365679 22.8125 -0.25 C23.79154297 -0.23195312 24.77058594 -0.21390625 25.77929688 -0.1953125 C28.18720771 -0.14832887 30.59309335 -0.08265694 33 0 C33 0.99 33 1.98 33 3 C31.68 3 30.36 3 29 3 C29 6.96 29 10.92 29 15 C27.68 15.33 26.36 15.66 25 16 C24.67 16.66 24.34 17.32 24 18 C23.34 18 22.68 18 22 18 C22 16.02 22 14.04 22 12 C21.01 13.485 21.01 13.485 20 15 C16.30027921 15.96514455 13.62250091 16.16854868 10 15 C8.33480481 14.65939189 6.66842534 14.32441604 5 14 C5 13.01 5 12.02 5 11 C3.02 11 1.04 11 -1 11 C-1 11.66 -1 12.32 -1 13 C-1.99 13 -2.98 13 -4 13 C-3.27991594 8.39146203 -1.68704061 4.32762591 0 0 Z " fill="#180E02" transform="translate(84,150)"/>
<path d="M0 0 C0.99 0.33 1.98 0.66 3 1 C3 1.99 3 2.98 3 4 C7.13236205 6.00356948 10.42561479 6.4901127 15 6 C17.90809543 4.14283813 17.90809543 4.14283813 20 2 C20.66 2.33 21.32 2.66 22 3 C16.25 8 16.25 8 14 8 C14 9.32 14 10.64 14 12 C11.525 11.505 11.525 11.505 9 11 C9 10.01 9 9.02 9 8 C3.83430559 6.20782031 0.48946087 5.87970186 -5 7 C-5 7.99 -5 8.98 -5 10 C-6.98 10.99 -6.98 10.99 -9 12 C-4.7961068 13.51340155 -3.04216399 12.72030914 2 12 C2 17.28 2 22.56 2 28 C-0.64 28 -3.28 28 -6 28 C-6.66 24.37 -7.32 20.74 -8 17 C-8.33 20.96 -8.66 24.92 -9 29 C-15.15234375 29.09765625 -15.15234375 29.09765625 -17 29 C-18 28 -18 28 -18.11352539 26.23413086 C-18.10828857 25.48526611 -18.10305176 24.73640137 -18.09765625 23.96484375 C-18.09443359 23.15595703 -18.09121094 22.34707031 -18.08789062 21.51367188 C-18.07951172 20.66353516 -18.07113281 19.81339844 -18.0625 18.9375 C-18.05798828 18.08349609 -18.05347656 17.22949219 -18.04882812 16.34960938 C-18.03700373 14.23304337 -18.01906769 12.11651315 -18 10 C-16.76121094 9.70996094 -15.52242188 9.41992188 -14.24609375 9.12109375 C-9.88215761 8.02746461 -6.74170621 6.51992459 -3 4 C-2.67 3.01 -2.34 2.02 -2 1 C-1.34 0.67 -0.68 0.34 0 0 Z " fill="#211304" transform="translate(87,104)"/>
<path d="M0 0 C3.875 0.875 3.875 0.875 5 2 C5.36760731 4.32817964 5.70241581 6.6618385 6 9 C7.32 9.33 8.64 9.66 10 10 C10 8.35 10 6.7 10 5 C11.98 4.01 13.96 3.02 16 2 C16.8125 4.1875 16.8125 4.1875 17 7 C14.74658696 9.91618158 12.86392694 11.61123288 9.5 13.125 C7 13 7 13 4.3125 10.625 C3.549375 9.75875 2.78625 8.8925 2 8 C1.34 7.67 0.68 7.34 0 7 C0 6.67 0 6.34 0 6 C-0.66 6 -1.32 6 -2 6 C-2.144375 6.639375 -2.28875 7.27875 -2.4375 7.9375 C-3 10 -3 10 -4 11 C-4.07244053 13.01964199 -4.08377188 15.04167124 -4.0625 17.0625 C-4.05347656 18.16722656 -4.04445313 19.27195312 -4.03515625 20.41015625 C-4.02355469 21.26480469 -4.01195313 22.11945313 -4 23 C-8.8359375 21.265625 -8.8359375 21.265625 -10.3125 18.875 C-10.539375 18.25625 -10.76625 17.6375 -11 17 C-11.66 17 -12.32 17 -13 17 C-12.91231752 18.5843317 -12.80412671 20.16753567 -12.6875 21.75 C-12.62949219 22.63171875 -12.57148437 23.5134375 -12.51171875 24.421875 C-11.9243263 27.3812568 -11.06538841 28.82177564 -9 31 C-8.01 31.33 -7.02 31.66 -6 32 C-6 32.66 -6 33.32 -6 34 C-4.68 34.66 -3.36 35.32 -2 36 C-3.45792884 36.05399736 -4.91642712 36.09279177 -6.375 36.125 C-7.18710938 36.14820313 -7.99921875 36.17140625 -8.8359375 36.1953125 C-11 36 -11 36 -13 34 C-13.66 33.4225 -14.32 32.845 -15 32.25 C-18.85362623 27.91467049 -19.27660178 23.07042668 -19.25 17.4375 C-19.25515625 16.34308594 -19.2603125 15.24867187 -19.265625 14.12109375 C-19.00162841 11.01913386 -18.31501748 8.80223963 -17 6 C-16.34 6 -15.68 6 -15 6 C-14.67 7.65 -14.34 9.3 -14 11 C-13.01 11 -12.02 11 -11 11 C-10.6596875 10.0409375 -10.6596875 10.0409375 -10.3125 9.0625 C-9.879375 8.381875 -9.44625 7.70125 -9 7 C-8.21625 6.87625 -7.4325 6.7525 -6.625 6.625 C-3.64881447 6.21076162 -3.64881447 6.21076162 -1.6875 2.9375 C-1.130625 1.968125 -0.57375 0.99875 0 0 Z " fill="#F17403" transform="translate(94,58)"/>
<path d="M0 0 C5.2899144 3.24608384 9.18398059 6.06942594 10.8984375 12.2265625 C11.05570313 13.34804688 11.21296875 14.46953125 11.375 15.625 C11.54773438 16.75164063 11.72046875 17.87828125 11.8984375 19.0390625 C12 22 12 22 10 25 C8.68 24.67 7.36 24.34 6 24 C6 23.01 6 22.02 6 21 C4.35 21.66 2.7 22.32 1 23 C0.34 21.02 -0.32 19.04 -1 17 C-1.66 17 -2.32 17 -3 17 C-2.85691406 16.30519531 -2.71382813 15.61039063 -2.56640625 14.89453125 C-1.96733421 11.83306655 -1.44485302 8.76544167 -0.9375 5.6875 C-0.76089844 4.61886719 -0.58429688 3.55023437 -0.40234375 2.44921875 C-0.26957031 1.64097656 -0.13679688 0.83273438 0 0 Z " fill="#F9DC0A" transform="translate(95,23)"/>
<path d="M0 0 C3.37693186 3.37693186 2.41123232 8.11811789 2.55859375 12.71484375 C2.71227271 15.97549304 2.71227271 15.97549304 4.53515625 17.94140625 C5.01855469 18.29074219 5.50195312 18.64007813 6 19 C5.34 19 4.68 19 4 19 C4 21.31 4 23.62 4 26 C3.34 26 2.68 26 2 26 C1.9175 26.721875 1.835 27.44375 1.75 28.1875 C0.5334678 32.74949575 -1.85605602 35.31145763 -5.875 37.73046875 C-6.90625 38.21128906 -7.9375 38.69210938 -9 39.1875 C-10.546875 39.92033203 -10.546875 39.92033203 -12.125 40.66796875 C-13.07375 41.10753906 -14.0225 41.54710937 -15 42 C-15.60199219 42.38414063 -16.20398438 42.76828125 -16.82421875 43.1640625 C-20.3995222 44.53769794 -24.02104757 44.24601957 -27.8125 44.1875 C-28.59431641 44.18685547 -29.37613281 44.18621094 -30.18164062 44.18554688 C-34.88234079 44.15020326 -39.36358651 43.77376727 -44 43 C-44 42.34 -44 41.68 -44 41 C-44.99 41 -45.98 41 -47 41 C-47.33 41.66 -47.66 42.32 -48 43 C-48 40 -48 40 -46 37 C-45.67 36.34 -45.34 35.68 -45 35 C-44.32904297 35.52400391 -44.32904297 35.52400391 -43.64453125 36.05859375 C-36.86485451 41.16142081 -30.96974989 41.59599794 -22.61328125 40.76171875 C-14.96100911 39.57243313 -7.03580628 36.10852241 -2 30 C-1.00626561 27.7396956 -1.00626561 27.7396956 -0.3125 25.3125 C0.06455078 24.10013672 0.06455078 24.10013672 0.44921875 22.86328125 C0.63097656 22.24839844 0.81273437 21.63351563 1 21 C0.34 21 -0.32 21 -1 21 C-0.83701416 20.42475586 -0.67402832 19.84951172 -0.50610352 19.25683594 C-0.00962472 17.04291893 0.11479744 15.15326203 0.09765625 12.890625 C0.09443359 12.13652344 0.09121094 11.38242188 0.08789062 10.60546875 C0.07951172 9.82816406 0.07113281 9.05085938 0.0625 8.25 C0.05798828 7.45722656 0.05347656 6.66445313 0.04882812 5.84765625 C0.03708565 3.89840492 0.01915146 1.94919262 0 0 Z " fill="#190902" transform="translate(121,53)"/>
<path d="M0 0 C0 9.57 0 19.14 0 29 C-2.31 29 -4.62 29 -7 29 C-7.14518182 24.9170404 -7.23403347 20.83474359 -7.3125 16.75 C-7.35439453 15.59113281 -7.39628906 14.43226562 -7.43945312 13.23828125 C-7.56344393 4.65811722 -7.56344393 4.65811722 -4.60546875 1.203125 C-2 0 -2 0 0 0 Z " fill="#EF880F" transform="translate(123,103)"/>
<path d="M0 0 C1 2 2 4 3 6 C4.97888961 6.72693904 6.97954558 7.39816251 9 8 C9 9.65 9 11.3 9 13 C8.01 13 7.02 13 6 13 C5.67 11.35 5.34 9.7 5 8 C4.34 8 3.68 8 3 8 C2.10179837 11.8586742 1.83581644 15.47836767 1.8125 19.4375 C1.79832031 20.52933594 1.78414063 21.62117188 1.76953125 22.74609375 C2.12237689 27.7277958 2.87848745 30.98529816 6.625 34.375 C7.40875 34.91125 8.1925 35.4475 9 36 C4.1371148 35.58318127 2.13513693 33.63015855 -1 30 C-5.06532156 24.04720771 -5.92676327 18.10847149 -5 11 C-3.61936612 7.17187878 -1.91090138 3.58976474 0 0 Z " fill="#FBA107" transform="translate(74,56)"/>
<path d="M0 0 C0.66 0.33 1.32 0.66 2 1 C2 2.98 2 4.96 2 7 C2.99 7 3.98 7 5 7 C5.66 5.35 6.32 3.7 7 2 C7.33 2.66 7.66 3.32 8 4 C8.66 4 9.32 4 10 4 C10.33 3.01 10.66 2.02 11 1 C10.125 6.75 10.125 6.75 9 9 C9.99 8.67 10.98 8.34 12 8 C10.64145846 15.03328278 8.65762701 19.11835677 3.03515625 23.625 C1.0465799 24.96852951 -0.76035758 26.13129021 -3 27 C-3.99 26.67 -4.98 26.34 -6 26 C-5.38640625 25.76539062 -4.7728125 25.53078125 -4.140625 25.2890625 C-1.4369579 23.6609418 -0.90946466 22.27366164 0.25 19.375 C0.58515625 18.55773437 0.9203125 17.74046875 1.265625 16.8984375 C1.50796875 16.27195312 1.7503125 15.64546875 2 15 C1.01 15 0.02 15 -1 15 C-1 15.66 -1 16.32 -1 17 C-1.99 17 -2.98 17 -4 17 C-4 16.34 -4 15.68 -4 15 C-3.34 15 -2.68 15 -2 15 C-0.94769611 10.0391388 0 5.08190964 0 0 Z " fill="#F28403" transform="translate(111,65)"/>
<path d="M0 0 C3 2 3 2 3.625 4.390625 C3.74875 5.33421875 3.8725 6.2778125 4 7.25 C4.70102507 11.77101761 5.67110387 15.08322014 8 19 C4.7 19.66 1.4 20.32 -2 21 C-1.96744792 18.72135417 -1.93489583 16.44270833 -1.90234375 14.1640625 C-1.85533666 11.95062858 -1.85533666 11.95062858 -3 10 C-3.66 10 -4.32 10 -5 10 C-4.99476318 10.66717041 -4.98952637 11.33434082 -4.98413086 12.02172852 C-4.87820568 27.71340358 -5.15323479 43.33033963 -6 59 C-6.33 59 -6.66 59 -7 59 C-7.12711297 52.15002325 -7.21448245 45.3003523 -7.2746582 38.44946289 C-7.29975227 36.12057122 -7.33383523 33.79175793 -7.37719727 31.46313477 C-7.43807117 28.10934072 -7.46626178 24.7565908 -7.48828125 21.40234375 C-7.51408768 20.36665756 -7.5398941 19.33097137 -7.56648254 18.26390076 C-7.56907457 11.53433659 -6.63601541 7.98065192 -2 3 C-1.34 3 -0.68 3 0 3 C0 2.01 0 1.02 0 0 Z " fill="#161719" transform="translate(66,68)"/>
<path d="M0 0 C1.32 0.33 2.64 0.66 4 1 C4 2.32 4 3.64 4 5 C2.68 5.33 1.36 5.66 0 6 C0 6.99 0 7.98 0 9 C-0.99 9.495 -0.99 9.495 -2 10 C-2 10.66 -2 11.32 -2 12 C-1.01 12 -0.02 12 1 12 C1.02465622 16.25414623 1.04283899 20.50825498 1.05493164 24.76245117 C1.05997101 26.21070073 1.06680253 27.65894517 1.07543945 29.10717773 C1.08752247 31.18474588 1.09323211 33.26224697 1.09765625 35.33984375 C1.10289307 36.59144287 1.10812988 37.84304199 1.11352539 39.13256836 C1 42 1 42 0 43 C-2.64 43 -5.28 43 -8 43 C-8.33 34.42 -8.66 25.84 -9 17 C-10.65 16.67 -12.3 16.34 -14 16 C-13.67 14.35 -13.34 12.7 -13 11 C-12.113125 10.7525 -11.22625 10.505 -10.3125 10.25 C-5.74478937 8.52633561 -2.82225915 6.7228287 -0.6875 2.25 C-0.460625 1.5075 -0.23375 0.765 0 0 Z M-4.60546875 14.203125 C-8.53446027 18.79228965 -7.52286012 23.93111536 -7.3125 29.75 C-7.28994141 30.92433594 -7.26738281 32.09867188 -7.24414062 33.30859375 C-7.1852296 36.20701637 -7.10301631 39.10286427 -7 42 C-4.69 42 -2.38 42 0 42 C0 32.43 0 22.86 0 13 C-2.17567997 12.8602564 -2.17567997 12.8602564 -4.60546875 14.203125 Z " fill="#765615" transform="translate(123,90)"/>
<path d="M0 0 C0 6.93 0 13.86 0 21 C-2.64 21 -5.28 21 -8 21 C-8.16225719 18.24763726 -8.2809328 15.50482524 -8.375 12.75 C-8.42527344 11.97269531 -8.47554688 11.19539063 -8.52734375 10.39453125 C-8.58571174 8.11817945 -8.55969289 6.2096092 -8 4 C-3.44785276 0 -3.44785276 0 0 0 Z " fill="#DE891A" transform="translate(112,112)"/>
<path d="M0 0 C3.09443084 0.5415254 4.42308202 1.05289047 6.5 3.4375 C7 6.9375 7 6.9375 6.5 10.4375 C4.26679398 13.10016871 2.8799883 13.39097082 -0.5625 13.8125 C-3.5 13.4375 -3.5 13.4375 -5.375 12.3125 C-7.05468045 9.51303259 -6.95742277 7.63945936 -6.5 4.4375 C-4.51241034 1.64015158 -3.39834723 0.59471076 0 0 Z " fill="#E3C84D" transform="translate(71.5,149.5625)"/>
<path d="M0 0 C0.99 0.33 1.98 0.66 3 1 C3 1.99 3 2.98 3 4 C7.13236205 6.00356948 10.42561479 6.4901127 15 6 C17.90809543 4.14283813 17.90809543 4.14283813 20 2 C20.66 2.33 21.32 2.66 22 3 C16.25 8 16.25 8 14 8 C14 9.32 14 10.64 14 12 C11.525 11.505 11.525 11.505 9 11 C9 10.01 9 9.02 9 8 C3.5760165 5.80732582 0.52898362 5.96781639 -4.91796875 8.07421875 C-9.03205587 9.90355955 -11.47692754 11.21539131 -14 15 C-15.32 15 -16.64 15 -18 15 C-18 13.35 -18 11.7 -18 10 C-16.824375 9.7525 -15.64875 9.505 -14.4375 9.25 C-10.0596056 8.15163148 -6.74641235 6.52309403 -3 4 C-2.67 3.01 -2.34 2.02 -2 1 C-1.34 0.67 -0.68 0.34 0 0 Z " fill="#C19839" transform="translate(87,104)"/>
<path d="M0 0 C1.258125 -0.04125 2.51625 -0.0825 3.8125 -0.125 C4.52019531 -0.14820313 5.22789063 -0.17140625 5.95703125 -0.1953125 C8 0 8 0 11 2 C11.1875 4.625 11.1875 4.625 11 7 C10.34 7 9.68 7 9 7 C9.66 8.98 10.32 10.96 11 13 C9.0625 12.625 9.0625 12.625 7 12 C6.67 11.34 6.34 10.68 6 10 C5.01 9.67 4.02 9.34 3 9 C3 10.32 3 11.64 3 13 C2.01 13 1.02 13 0 13 C0 8.71 0 4.42 0 0 Z " fill="#D2A633" transform="translate(52,150)"/>
<path d="M0 0 C0 5.28 0 10.56 0 16 C-2.64 16 -5.28 16 -8 16 C-8 12.04 -8 8.08 -8 4 C-1.125 0 -1.125 0 0 0 Z " fill="#F68C07" transform="translate(89,116)"/>
<path d="M0 0 C2 1 2 1 2.58984375 2.640625 C3.1168666 5.67226119 3.34764785 8.68068361 3.5625 11.75 C3.64628906 12.92046875 3.73007813 14.0909375 3.81640625 15.296875 C3.87699219 16.18890625 3.93757813 17.0809375 4 18 C6.64 18.33 9.28 18.66 12 19 C12 14.71 12 10.42 12 6 C12.66 6.33 13.32 6.66 14 7 C15.37020997 11.11062991 15.06276637 14.66912062 15 19 C17.97 19 20.94 19 24 19 C24 19.33 24 19.66 24 20 C20.04 20 16.08 20 12 20 C12 20.66 12 21.32 12 22 C5.73353293 22.48203593 5.73353293 22.48203593 2.8125 20.5625 C0.13780825 16.78103926 0.32788182 13.281306 0.25 8.75 C0.22035156 7.90953125 0.19070312 7.0690625 0.16015625 6.203125 C0.08968364 4.1359285 0.04255061 2.06795967 0 0 Z " fill="#090302" transform="translate(66,114)"/>
<path d="M0 0 C2.24721871 1.84592966 3.35596563 3.90289205 4.75 6.4375 C5.41 7.0975 6.07 7.7575 6.75 8.4375 C3.75 10.4375 3.75 10.4375 -0.25 10.4375 C-0.58 9.1175 -0.91 7.7975 -1.25 6.4375 C-2.02085938 6.60507813 -2.79171875 6.77265625 -3.5859375 6.9453125 C-4.58882812 7.14898437 -5.59171875 7.35265625 -6.625 7.5625 C-7.62273437 7.77132812 -8.62046875 7.98015625 -9.6484375 8.1953125 C-10.50695312 8.27523437 -11.36546875 8.35515625 -12.25 8.4375 C-12.91 7.7775 -13.57 7.1175 -14.25 6.4375 C-12.6 5.7775 -10.95 5.1175 -9.25 4.4375 C-9.25 3.4475 -9.25 2.4575 -9.25 1.4375 C-2.95967742 -0.73991935 -2.95967742 -0.73991935 0 0 Z " fill="#0E0908" transform="translate(91.25,109.5625)"/>
<path d="M0 0 C0 4.62 0 9.24 0 14 C-2.64 14 -5.28 14 -8 14 C-8 10.04 -8 6.08 -8 2 C-2.25 0 -2.25 0 0 0 Z " fill="#D38419" transform="translate(101,119)"/>
<path d="M0 0 C2.7019433 0.36512747 4.58390852 0.69869237 6.8125 2.3125 C8 4 8 4 8 8 C7.38125 8.04125 6.7625 8.0825 6.125 8.125 C5.42375 8.41375 4.7225 8.7025 4 9 C3.690625 9.969375 3.38125 10.93875 3.0625 11.9375 C2 15 2 15 -0.625 16.375 C-1.800625 16.684375 -1.800625 16.684375 -3 17 C-2.67 13.7 -2.34 10.4 -2 7 C-1.34 7 -0.68 7 0 7 C0 4.69 0 2.38 0 0 Z " fill="#252427" transform="translate(125,72)"/>
<path d="M0 0 C0 5.61 0 11.22 0 17 C-0.99 16.34 -1.98 15.68 -3 15 C-3 14.34 -3 13.68 -3 13 C-3.66 13 -4.32 13 -5 13 C-5.66 14.32 -6.32 15.64 -7 17 C-7.13536022 14.91846065 -7.23215465 12.83438794 -7.3125 10.75 C-7.37050781 9.58984375 -7.42851563 8.4296875 -7.48828125 7.234375 C-7 4 -7 4 -4.60546875 1.578125 C-2 0 -2 0 0 0 Z " fill="#F8B814" transform="translate(123,103)"/>
<path d="M0 0 C0.66 0.99 1.32 1.98 2 3 C1.67 3.99 1.34 4.98 1 6 C0.01 6 -0.98 6 -2 6 C-2.309375 6.94875 -2.61875 7.8975 -2.9375 8.875 C-4 12 -4 12 -5 14 C-6.99609375 14.81640625 -6.99609375 14.81640625 -9.4375 15.5625 C-12.79152852 16.59917007 -12.79152852 16.59917007 -16 18 C-13.66666667 13.33333333 -11.33333333 8.66666667 -9 4 C-8.34 4 -7.68 4 -7 4 C-6.67 5.65 -6.34 7.3 -6 9 C-3.03 4.545 -3.03 4.545 0 0 Z " fill="#D7B71F" transform="translate(91,38)"/>
<path d="M0 0 C0 3.63 0 7.26 0 11 C-2.64 11 -5.28 11 -8 11 C-8 7.7 -8 4.4 -8 1 C-4 0 -4 0 0 0 Z " fill="#CA8B28" transform="translate(78,122)"/>
<path d="M0 0 C1.32 0 2.64 0 4 0 C4 3.3 4 6.6 4 10 C5.98 10 7.96 10 10 10 C10 11.32 10 12.64 10 14 C6.7 14 3.4 14 0 14 C0 9.38 0 4.76 0 0 Z " fill="#715111" transform="translate(119,150)"/>
<path d="M0 0 C3.0625 0.125 3.0625 0.125 5.0625 1.125 C5.0625 1.785 5.0625 2.445 5.0625 3.125 C3.0825 3.125 1.1025 3.125 -0.9375 3.125 C-0.9375 3.785 -0.9375 4.445 -0.9375 5.125 C1.0425 5.785 3.0225 6.445 5.0625 7.125 C5.0625 8.775 5.0625 10.425 5.0625 12.125 C2.10585481 13.6033226 -0.67979737 13.18532783 -3.9375 13.125 C-3.6075 12.135 -3.2775 11.145 -2.9375 10.125 C-1.2875 10.455 0.3625 10.785 2.0625 11.125 C2.0625 10.135 2.0625 9.145 2.0625 8.125 C1.258125 8.145625 0.45375 8.16625 -0.375 8.1875 C-2.9375 8.125 -2.9375 8.125 -3.9375 7.125 C-4.0625 4.125 -4.0625 4.125 -3.9375 1.125 C-2.9375 0.125 -2.9375 0.125 0 0 Z " fill="#D4A536" transform="translate(98.9375,149.875)"/>
<path d="M0 0 C1.32 0 2.64 0 4 0 C4.33 1.98 4.66 3.96 5 6 C4.34 6 3.68 6 3 6 C3 5.34 3 4.68 3 4 C2.34 4 1.68 4 1 4 C0.67 5.65 0.34 7.3 0 9 C1.32 9 2.64 9 4 9 C4 8.34 4 7.68 4 7 C4.99 7.33 5.98 7.66 7 8 C7.33 9.65 7.66 11.3 8 13 C7.01 13 6.02 13 5 13 C5 12.34 5 11.68 5 11 C3.02 11 1.04 11 -1 11 C-1 11.66 -1 12.32 -1 13 C-1.99 13 -2.98 13 -4 13 C-3.27991594 8.39146203 -1.68704061 4.32762591 0 0 Z " fill="#D9A230" transform="translate(84,150)"/>
<path d="M0 0 C0 0.66 0 1.32 0 2 C1.32 1.67 2.64 1.34 4 1 C4 1.66 4 2.32 4 3 C3.1028125 3.309375 3.1028125 3.309375 2.1875 3.625 C-0.81018767 5.50926082 -1.61361776 7.81132084 -3 11 C-3.598125 10.79375 -4.19625 10.5875 -4.8125 10.375 C-7.28450846 9.69328085 -7.28450846 9.69328085 -10 12 C-10.25532751 8.93606987 -10.21861333 7.36766788 -8.625 4.6875 C-8.08875 4.130625 -7.5525 3.57375 -7 3 C-6.34 3 -5.68 3 -5 3 C-5 2.34 -5 1.68 -5 1 C-2 0 -2 0 0 0 Z " fill="#F29101" transform="translate(93,55)"/>
<path d="M0 0 C0.33 1.65 0.66 3.3 1 5 C2.65 5.33 4.3 5.66 6 6 C6 6.99 6 7.98 6 9 C5.21625 8.979375 4.4325 8.95875 3.625 8.9375 C1.01885039 8.81315937 1.01885039 8.81315937 -1 10 C-1 9.34 -1 8.68 -1 8 C-1.99 8 -2.98 8 -4 8 C-5.6875 6.5 -5.6875 6.5 -7 5 C-7 5.66 -7 6.32 -7 7 C-8.32 7 -9.64 7 -11 7 C-10.67 5.35 -10.34 3.7 -10 2 C-9.34 2 -8.68 2 -8 2 C-8 2.66 -8 3.32 -8 4 C-7.34 4 -6.68 4 -6 4 C-5.67 3.34 -5.34 2.68 -5 2 C-1.44444444 0 -1.44444444 0 0 0 Z " fill="#4A3308" transform="translate(95,152)"/>
<path d="M0 0 C1.41702513 0.14230808 2.8336096 0.28900746 4.25 0.4375 C5.43335937 0.55931641 5.43335937 0.55931641 6.640625 0.68359375 C8.82364639 0.97634993 10.8773182 1.42064419 13 2 C13 2.66 13 3.32 13 4 C14.98 4 16.96 4 19 4 C13.57208334 7.61861111 7.31704728 7.11082539 1 7 C1.66 6.34 2.32 5.68 3 5 C2.2575 4.319375 2.2575 4.319375 1.5 3.625 C0 2 0 2 0 0 Z " fill="#B14309" transform="translate(87,88)"/>
<path d="M0 0 C0.33 0 0.66 0 1 0 C1.26563603 3.09908697 1.26340125 4.60386111 -0.48828125 7.23828125 C-2.37624234 10.68734711 -2.40029795 13.08724966 -2.375 17 C-2.38273437 18.19625 -2.39046875 19.3925 -2.3984375 20.625 C-1.8541575 25.23537176 -0.4214161 27.7470883 3.04296875 30.80078125 C3.75066406 31.29964844 4.45835938 31.79851562 5.1875 32.3125 C6.26064453 33.08013672 6.26064453 33.08013672 7.35546875 33.86328125 C7.89816406 34.23839844 8.44085938 34.61351562 9 35 C7.515 35.495 7.515 35.495 6 36 C0.61813161 33.25181189 -1.45985913 30.26844032 -4 25 C-6.81374386 15.65232744 -4.4648548 8.38754865 0 0 Z " fill="#E6AD30" transform="translate(74,56)"/>
<path d="M0 0 C0.99 0.495 0.99 0.495 2 1 C2.40729228 3.32156597 2.74438677 5.6568787 3 8 C4.32 8.33 5.64 8.66 7 9 C7 7.35 7 5.7 7 4 C8.98 3.01 10.96 2.02 13 1 C13.8125 3.1875 13.8125 3.1875 14 6 C11.69533287 8.9825104 9.90943695 10.65354783 6.375 12 C4 12 4 12 2.39453125 10.79296875 C0.66113511 8.56431657 0.51494993 7.106309 0.3125 4.3125 C0.24675781 3.50425781 0.18101563 2.69601563 0.11328125 1.86328125 C0.07589844 1.24839844 0.03851563 0.63351563 0 0 Z " fill="#F48C04" transform="translate(97,59)"/>
<path d="M0 0 C0.93065133 2.60582371 1.14917407 3.64198224 0.0625 6.25 C-0.288125 6.8275 -0.63875 7.405 -1 8 C-0.01 7.67 0.98 7.34 2 7 C0.64145846 14.03328278 -1.34237299 18.11835677 -6.96484375 22.625 C-8.9534201 23.96852951 -10.76035758 25.13129021 -13 26 C-13.99 25.67 -14.98 25.34 -16 25 C-15.360625 24.71125 -14.72125 24.4225 -14.0625 24.125 C-11.84793921 23.17176549 -11.84793921 23.17176549 -11 21 C-9.68 21 -8.36 21 -7 21 C-7 19.68 -7 18.36 -7 17 C-5.68 17 -4.36 17 -3 17 C-3 15.68 -3 14.36 -3 13 C-2.34 13 -1.68 13 -1 13 C-1 12.01 -1 11.02 -1 10 C-1.66 10 -2.32 10 -3 10 C-2.67 7.69 -2.34 5.38 -2 3 C-1.34 3 -0.68 3 0 3 C0 2.01 0 1.02 0 0 Z " fill="#D38221" transform="translate(121,66)"/>
<path d="M0 0 C0.66 1.32 1.32 2.64 2 4 C4.05000871 4.80528889 4.05000871 4.80528889 6 5 C5.34 5 4.68 5 4 5 C4 8.96 4 12.92 4 17 C0.04 17 -3.92 17 -8 17 C-8 16.67 -8 16.34 -8 16 C-5.36 16 -2.72 16 0 16 C0 10.72 0 5.44 0 0 Z " fill="#472A05" transform="translate(89,116)"/>
<path d="M0 0 C0.66 0 1.32 0 2 0 C2 4.29 2 8.58 2 13 C0.02 13 -1.96 13 -4 13 C-4 9.7 -4 6.4 -4 3 C-2.68 3 -1.36 3 0 3 C0 2.01 0 1.02 0 0 Z " fill="#170A01" transform="translate(117,150)"/>
<path d="M0 0 C0 3.3 0 6.6 0 10 C-4.75 11 -4.75 11 -7 11 C-7.43695709 5.66912345 -7.43695709 5.66912345 -7 3 C-4.59140121 0.97170628 -3.16955691 0 0 0 Z " fill="#F3A70A" transform="translate(112,112)"/>
<path d="M0 0 C0.99 0.33 1.98 0.66 3 1 C2.01 1.495 2.01 1.495 1 2 C0.88011719 2.62390625 0.76023437 3.2478125 0.63671875 3.890625 C-0.24191406 6.80143307 -1.55496779 7.32128905 -4.1875 8.75 C-7.94118777 10.71079218 -10.70325325 11.55086497 -15 11 C-15 12.65 -15 14.3 -15 16 C-16.0625 14.1875 -16.0625 14.1875 -17 12 C-16.67 11.01 -16.34 10.02 -16 9 C-13.29120665 7.64560332 -10.99066732 7.93498549 -8 8 C-7.67 7.01 -7.34 6.02 -7 5 C-6.34 5 -5.68 5 -5 5 C-4.67 4.34 -4.34 3.68 -4 3 C-2.68 3.33 -1.36 3.66 0 4 C0 2.68 0 1.36 0 0 Z " fill="#1C1104" transform="translate(84,103)"/>
<path d="M0 0 C3.63 0 7.26 0 11 0 C11 0.99 11 1.98 11 3 C9.68 3 8.36 3 7 3 C7 6.3 7 9.6 7 13 C6.01 13 5.02 13 4 13 C4 9.7 4 6.4 4 3 C2.68 3 1.36 3 0 3 C0 2.01 0 1.02 0 0 Z " fill="#D5B13E" transform="translate(106,150)"/>
<path d="M0 0 C1.9375 0.3125 1.9375 0.3125 4 1 C4.33 1.99 4.66 2.98 5 4 C5.66 4 6.32 4 7 4 C7.33 2.68 7.66 1.36 8 0 C9.32 0 10.64 0 12 0 C11.67 1.32 11.34 2.64 11 4 C10.34 4 9.68 4 9 4 C8.34 6.97 7.68 9.94 7 13 C6.34 13 5.68 13 5 13 C4.731875 11.9275 4.46375 10.855 4.1875 9.75 C3.12368849 6.39059522 2.16633521 4.65868412 0 2 C0 1.34 0 0.68 0 0 Z " fill="#D2AF37" transform="translate(128,150)"/>
<path d="M0 0 C3.50119698 4.56677867 4.11961078 6.79970067 4.0625 12.625 C4.05347656 13.81351563 4.04445313 15.00203125 4.03515625 16.2265625 C4.02355469 17.14179687 4.01195313 18.05703125 4 19 C5.65 17.68 7.3 16.36 9 15 C8.59316505 17.35964273 8.10185661 18.85934088 6.6875 20.8125 C6.130625 21.204375 5.57375 21.59625 5 22 C2.89453125 21.57421875 2.89453125 21.57421875 1 21 C1.01160156 20.23816406 1.02320312 19.47632812 1.03515625 18.69140625 C1.09047294 12.36159678 0.8365926 6.27444451 0 0 Z " fill="#DDC52A" transform="translate(105,34)"/>
<path d="M0 0 C3.37693186 3.37693186 2.41123232 8.11811789 2.55859375 12.71484375 C2.71227271 15.97549304 2.71227271 15.97549304 4.53515625 17.94140625 C5.01855469 18.29074219 5.50195312 18.64007813 6 19 C5.34 19 4.68 19 4 19 C4 21.31 4 23.62 4 26 C3.01 26 2.02 26 1 26 C1 26.99 1 27.98 1 29 C0.34 29 -0.32 29 -1 29 C-0.34 26.36 0.32 23.72 1 21 C0.34 21 -0.32 21 -1 21 C-0.83701416 20.42475586 -0.67402832 19.84951172 -0.50610352 19.25683594 C-0.00962472 17.04291893 0.11479744 15.15326203 0.09765625 12.890625 C0.09443359 12.13652344 0.09121094 11.38242188 0.08789062 10.60546875 C0.07951172 9.82816406 0.07113281 9.05085938 0.0625 8.25 C0.05573242 7.06083984 0.05573242 7.06083984 0.04882812 5.84765625 C0.03708565 3.89840492 0.01915146 1.94919262 0 0 Z " fill="#2F1D05" transform="translate(121,53)"/>
<path d="M0 0 C0.33 0 0.66 0 1 0 C0.7834375 1.60875 0.7834375 1.60875 0.5625 3.25 C-0.1384031 8.81717318 -0.56188922 14.4070964 -1 20 C-1.99 20 -2.98 20 -4 20 C-4.68886437 6.03136144 -4.68886437 6.03136144 -2.0625 2.125 C-1.0415625 1.073125 -1.0415625 1.073125 0 0 Z " fill="#FAB307" transform="translate(75,60)"/>
<path d="M0 0 C1.65 0 3.3 0 5 0 C4.67 0.66 4.34 1.32 4 2 C3.01 1.67 2.02 1.34 1 1 C3.27307664 4.67840889 3.27307664 4.67840889 6 8 C6.04080783 9.99958364 6.04254356 12.00045254 6 14 C6.66 14 7.32 14 8 14 C8 12.35 8 10.7 8 9 C8.33 9 8.66 9 9 9 C9 11.31 9 13.62 9 16 C7.68 16 6.36 16 5 16 C4.34 15.34 3.68 14.68 3 14 C2.67 14 2.34 14 2 14 C2.33 11.69 2.66 9.38 3 7 C2.01 7 1.02 7 0 7 C0 4.69 0 2.38 0 0 Z " fill="#342002" transform="translate(127,149)"/>
<path d="M0 0 C0.33 0 0.66 0 1 0 C1.103125 1.0725 1.20625 2.145 1.3125 3.25 C1.97828487 6.88155382 2.43944829 8.43944829 5 11 C5.99 11.33 6.98 11.66 8 12 C8 12.66 8 13.32 8 14 C9.32 14.66 10.64 15.32 12 16 C10.54207116 16.05399736 9.08357288 16.09279177 7.625 16.125 C6.40683594 16.15980469 6.40683594 16.15980469 5.1640625 16.1953125 C3 16 3 16 1 14 C1 12 1 10 1 8 C0.01 7.67 -0.98 7.34 -2 7 C-1.42415568 4.61435923 -0.77772405 2.33317216 0 0 Z " fill="#E0660B" transform="translate(80,78)"/>
<path d="M0 0 C0.66 0.33 1.32 0.66 2 1 C3.37020997 5.11062991 3.06276637 8.66912062 3 13 C5.97 13 8.94 13 12 13 C12 13.33 12 13.66 12 14 C8.04 14 4.08 14 0 14 C-0.33 14.66 -0.66 15.32 -1 16 C-1 15.34 -1 14.68 -1 14 C-2.98 14 -4.96 14 -7 14 C-7 13.67 -7 13.34 -7 13 C-4.69 13 -2.38 13 0 13 C0 8.71 0 4.42 0 0 Z " fill="#1A0600" transform="translate(78,120)"/>
<path d="M0 0 C3 2 3 2 3.625 4.390625 C3.74875 5.33421875 3.8725 6.2778125 4 7.25 C4.70102507 11.77101761 5.67110387 15.08322014 8 19 C6.1875 19.6875 6.1875 19.6875 4 20 C2.375 18.9375 2.375 18.9375 1 17 C0.70703125 13.86328125 0.70703125 13.86328125 0.8125 10.3125 C0.83957031 9.13300781 0.86664063 7.95351562 0.89453125 6.73828125 C0.92933594 5.83464844 0.96414062 4.93101563 1 4 C0.01 3.67 -0.98 3.34 -2 3 C-1.34 3 -0.68 3 0 3 C0 2.01 0 1.02 0 0 Z " fill="#0F0907" transform="translate(66,68)"/>
<path d="M0 0 C-0.99 0.66 -1.98 1.32 -3 2 C-2.67 3.32 -2.34 4.64 -2 6 C-3.26418246 6.69965443 -4.53665402 7.38434763 -5.8125 8.0625 C-6.52019531 8.44535156 -7.22789063 8.82820313 -7.95703125 9.22265625 C-10 10 -10 10 -13 9 C-13 6 -13 6 -11.42578125 4.39453125 C-10.37970703 3.61142578 -10.37970703 3.61142578 -9.3125 2.8125 C-8.62800781 2.28269531 -7.94351563 1.75289063 -7.23828125 1.20703125 C-4.62535602 -0.20203314 -2.92557181 -0.2305617 0 0 Z " fill="#211708" transform="translate(114,106)"/>
<path d="M0 0 C2 0.6875 2 0.6875 4 2.6875 C3.625 5.3125 3.625 5.3125 3 7.6875 C1.35 8.0175 -0.3 8.3475 -2 8.6875 C-2 8.0275 -2 7.3675 -2 6.6875 C-0.68 6.6875 0.64 6.6875 2 6.6875 C1.67 5.3675 1.34 4.0475 1 2.6875 C0.01 2.6875 -0.98 2.6875 -2 2.6875 C-2.2475 3.47125 -2.495 4.255 -2.75 5.0625 C-4.15389099 8.01067108 -5.00675737 8.5899777 -8 9.6875 C-7.67 8.0375 -7.34 6.3875 -7 4.6875 C-6.34 4.6875 -5.68 4.6875 -5 4.6875 C-4.87625 4.048125 -4.7525 3.40875 -4.625 2.75 C-4.41875 2.069375 -4.2125 1.38875 -4 0.6875 C-2 -0.3125 -2 -0.3125 0 0 Z " fill="#1E1405" transform="translate(125,88.3125)"/>
<path d="M0 0 C0.33 0 0.66 0 1 0 C1 1.65 1 3.3 1 5 C0.34 5 -0.32 5 -1 5 C-0.34 6.98 0.32 8.96 1 11 C-0.9375 10.625 -0.9375 10.625 -3 10 C-3.33 9.34 -3.66 8.68 -4 8 C-4.99 7.34 -5.98 6.68 -7 6 C-7.1875 3.375 -7.1875 3.375 -7 1 C-5.33388095 0.957279 -3.66617115 0.95936168 -2 1 C-1.67 1.33 -1.34 1.66 -1 2 C-0.67 1.34 -0.34 0.68 0 0 Z " fill="#9D7521" transform="translate(62,152)"/>
<path d="M0 0 C1 2 1 2 0.44140625 3.9453125 C0.15136719 4.66460937 -0.13867188 5.38390625 -0.4375 6.125 C-0.72496094 6.84945312 -1.01242188 7.57390625 -1.30859375 8.3203125 C-1.53675781 8.87460938 -1.76492187 9.42890625 -2 10 C-1.01 10.33 -0.02 10.66 1 11 C-3.62 11 -8.24 11 -13 11 C-13 10.67 -13 10.34 -13 10 C-11.329375 9.7215625 -11.329375 9.7215625 -9.625 9.4375 C-8.42875 8.963125 -7.2325 8.48875 -6 8 C-4.45913678 4.48599332 -4.45913678 4.48599332 -4 1 C-2.68 0.67 -1.36 0.34 0 0 Z " fill="#291801" transform="translate(82,153)"/>
<path d="M0 0 C0 5.28 0 10.56 0 16 C-2.64 16 -5.28 16 -8 16 C-8 12.04 -8 8.08 -8 4 C-1.125 0 -1.125 0 0 0 Z M-5.125 3.9375 C-7.80102543 6.88112798 -7.31237393 9.29076946 -7.140625 13.13671875 C-7.09421875 13.75160156 -7.0478125 14.36648437 -7 15 C-5.02 15 -3.04 15 -1 15 C-1 11.04 -1 7.08 -1 3 C-3.08212957 2.86545326 -3.08212957 2.86545326 -5.125 3.9375 Z " fill="#D9A131" transform="translate(89,116)"/>
<path d="M0 0 C1.0209375 0.37125 1.0209375 0.37125 2.0625 0.75 C2.0625 1.08 2.0625 1.41 2.0625 1.75 C1.47082031 1.93175781 0.87914063 2.11351563 0.26953125 2.30078125 C-7.9793669 4.82232697 -7.9793669 4.82232697 -13.9375 10.75 C-15.2575 10.75 -16.5775 10.75 -17.9375 10.75 C-17.9375 9.1 -17.9375 7.45 -17.9375 5.75 C-16.761875 5.5025 -15.58625 5.255 -14.375 5 C-11.28679191 4.25250087 -8.9266089 3.26633254 -6.25 1.5625 C-2.9375 -0.25 -2.9375 -0.25 0 0 Z " fill="#9E7F3C" transform="translate(86.9375,108.25)"/>
<path d="M0 0 C0.33 0.66 0.66 1.32 1 2 C1.99 2 2.98 2 4 2 C3.67 5.96 3.34 9.92 3 14 C2.01 13.67 1.02 13.34 0 13 C0.66 11.02 1.32 9.04 2 7 C1.01 7 0.02 7 -1 7 C-1 7.66 -1 8.32 -1 9 C-1.99 9 -2.98 9 -4 9 C-4 8.34 -4 7.68 -4 7 C-3.34 7 -2.68 7 -2 7 C-1.855625 6.21625 -1.71125 5.4325 -1.5625 4.625 C-1 2 -1 2 0 0 Z " fill="#ED7204" transform="translate(111,73)"/>
<path d="M0 0 C0.66 0 1.32 0 2 0 C6.09478486 7.67534092 7.87997175 14.20028252 7 23 C6.34 23.99 5.68 24.98 5 26 C5.04125 24.783125 5.0825 23.56625 5.125 22.3125 C5.14480938 16.11216291 4.05485097 10.093648 3 4 C2.01 4 1.02 4 0 4 C0 2.68 0 1.36 0 0 Z " fill="#EFC72D" transform="translate(115,43)"/>
<path d="M0 0 C1.51953125 1.14453125 1.51953125 1.14453125 3 3 C3.07421875 5.69921875 3.07421875 5.69921875 2.6875 8.6875 C2.50767578 10.17830078 2.50767578 10.17830078 2.32421875 11.69921875 C2.21722656 12.45847656 2.11023438 13.21773437 2 14 C2.99 14.33 3.98 14.66 5 15 C4.34 16.32 3.68 17.64 3 19 C2.34 19 1.68 19 1 19 C0.92652344 17.67935547 0.92652344 17.67935547 0.8515625 16.33203125 C0.77679688 15.17058594 0.70203125 14.00914063 0.625 12.8125 C0.55539063 11.66394531 0.48578125 10.51539063 0.4140625 9.33203125 C0.02490426 6.20040883 -0.6809851 3.84714191 -2 1 C-1.34 0.67 -0.68 0.34 0 0 Z " fill="#150C03" transform="translate(108,34)"/>
<path d="M0 0 C0.99 0 1.98 0 3 0 C3.433125 0.9590625 3.433125 0.9590625 3.875 1.9375 C4.82823451 4.15206079 4.82823451 4.15206079 7 5 C11.05142119 5.25860135 12.54337669 5.30441554 16 3 C16.99 3.33 17.98 3.66 19 4 C16.12273928 6.790071 14.5318497 7.93351879 10.5 8.4375 C6.83066833 7.97883354 4.85233135 7.33372565 2 5 C2 4.01 2 3.02 2 2 C1.34 2 0.68 2 0 2 C0 1.34 0 0.68 0 0 Z " fill="#261702" transform="translate(88,103)"/>
<path d="M0 0 C4.17882671 2.56428003 7.12505529 5.01930733 10 9 C9.67 9.66 9.34 10.32 9 11 C8.62875 10.525625 8.2575 10.05125 7.875 9.5625 C5.37353038 7.47794198 3.18406582 7.35378509 0 7 C0 4.69 0 2.38 0 0 Z " fill="#D7CD2A" transform="translate(95,23)"/>
<path d="M0 0 C1.2065625 0.0309375 1.2065625 0.0309375 2.4375 0.0625 C2.4375 2.3725 2.4375 4.6825 2.4375 7.0625 C0.4575 7.0625 -1.5225 7.0625 -3.5625 7.0625 C-3.60504356 5.06295254 -3.60330783 3.06208364 -3.5625 1.0625 C-2.5625 0.0625 -2.5625 0.0625 0 0 Z " fill="#F48F04" transform="translate(74.5625,123.9375)"/>
<path d="M0 0 C0.99 0 1.98 0 3 0 C3.33 2.97 3.66 5.94 4 9 C2.68 8.34 1.36 7.68 0 7 C0 6.67 0 6.34 0 6 C-0.66 6 -1.32 6 -2 6 C-2.12375 6.639375 -2.2475 7.27875 -2.375 7.9375 C-2.58125 8.618125 -2.7875 9.29875 -3 10 C-3.99 10.495 -3.99 10.495 -5 11 C-4.54917531 9.53932801 -4.08906463 8.08151968 -3.625 6.625 C-3.36976562 5.81289063 -3.11453125 5.00078125 -2.8515625 4.1640625 C-2 2 -2 2 0 0 Z " fill="#DF7201" transform="translate(94,58)"/>
<path d="M0 0 C0.33 0 0.66 0 1 0 C1.125 5.75 1.125 5.75 0 8 C-3.69941847 8.90430229 -6.38485006 9.1661774 -10 8 C-11.66519519 7.65939189 -13.33157466 7.32441604 -15 7 C-14.01 6.67 -13.02 6.34 -12 6 C-12 5.01 -12 4.02 -12 3 C-11.34 3 -10.68 3 -10 3 C-9.67 3.66 -9.34 4.32 -9 5 C-6.03 5 -3.06 5 0 5 C0 3.35 0 1.7 0 0 Z " fill="#311B03" transform="translate(104,157)"/>
<path d="M0 0 C1.67542976 0.28604898 3.34385343 0.61781233 5 1 C5 2.98 5 4.96 5 7 C3.33388095 7.042721 1.66617115 7.04063832 0 7 C-1 6 -1 6 -1.125 3.5 C-1 1 -1 1 0 0 Z " fill="#100708" transform="translate(69,153)"/>
<path d="M0 0 C0.99 0 1.98 0 3 0 C4.45184478 4.53701494 5.23509196 8.18061476 5 13 C3.79371992 10.66785852 2.8345262 8.50357861 2 6 C-0.01508358 5.26676204 -0.01508358 5.26676204 -2 5 C-1.34 3.35 -0.68 1.7 0 0 Z " fill="#F9D20E" transform="translate(115,47)"/>
<path d="M0 0 C1.9375 0.375 1.9375 0.375 4 1 C4.33 1.66 4.66 2.32 5 3 C5.99 3.66 6.98 4.32 8 5 C3.25 6.125 3.25 6.125 1 5 C1 5.66 1 6.32 1 7 C-0.32 6.67 -1.64 6.34 -3 6 C-3 5.34 -3 4.68 -3 4 C-2.01 4 -1.02 4 0 4 C0 2.68 0 1.36 0 0 Z " fill="#2B1702" transform="translate(55,159)"/>
<path d="M0 0 C3.0625 0.125 3.0625 0.125 5.0625 1.125 C5.0625 1.785 5.0625 2.445 5.0625 3.125 C3.0825 3.125 1.1025 3.125 -0.9375 3.125 C-0.6075 4.445 -0.2775 5.765 0.0625 7.125 C-1.2575 7.125 -2.5775 7.125 -3.9375 7.125 C-3.98004356 5.12545254 -3.97830783 3.12458364 -3.9375 1.125 C-2.9375 0.125 -2.9375 0.125 0 0 Z " fill="#CFB541" transform="translate(98.9375,149.875)"/>
<path d="M0 0 C0.66 0 1.32 0 2 0 C4 3 4 3 4 7 C4.66 7 5.32 7 6 7 C6 8.32 6 9.64 6 11 C5.01 11 4.02 11 3 11 C2.67 8.36 2.34 5.72 2 3 C-0.33075929 3.95865509 -0.33075929 3.95865509 -2 7 C-2.66 6.34 -3.32 5.68 -4 5 C-2.71937515 3.2925002 -1.38232443 1.62626404 0 0 Z " fill="#FAB203" transform="translate(115,53)"/>
<path d="M0 0 C0.66 0 1.32 0 2 0 C2 3.3 2 6.6 2 10 C3.98 10 5.96 10 8 10 C8 10.66 8 11.32 8 12 C5.36 12 2.72 12 0 12 C0 8.04 0 4.08 0 0 Z " fill="#E5B93E" transform="translate(120,151)"/>
<path d="M0 0 C0.66 0.33 1.32 0.66 2 1 C1.21625 1.7425 0.4325 2.485 -0.375 3.25 C-2.56504531 5.54433318 -3.82731386 7.12158858 -5 10 C-6.65 10 -8.3 10 -10 10 C-9.67 8.35 -9.34 6.7 -9 5 C-8.071875 4.731875 -7.14375 4.46375 -6.1875 4.1875 C-3.23759634 3.08851629 -1.94384814 2.37581439 0 0 Z " fill="#AB974A" transform="translate(119,96)"/>
<path d="M0 0 C0.33 0.66 0.66 1.32 1 2 C1.66 2 2.32 2 3 2 C2.67 2.66 2.34 3.32 2 4 C1.67 4 1.34 4 1 4 C1 4.33 1 4.66 1 5 C-0.78871178 5.38885039 -2.58112874 5.76069196 -4.375 6.125 C-5.37273437 6.33382812 -6.37046875 6.54265625 -7.3984375 6.7578125 C-8.25695312 6.83773437 -9.11546875 6.91765625 -10 7 C-10.66 6.34 -11.32 5.68 -12 5 C-9.3260876 4.10869587 -6.76276177 3.52268466 -4 3 C-4.33 2.34 -4.66 1.68 -5 1 C-3.35 0.67 -1.7 0.34 0 0 Z " fill="#181419" transform="translate(89,111)"/>
<path d="M0 0 C0.66 0 1.32 0 2 0 C2 2.64 2 5.28 2 8 C-0.76264289 8.59732819 -3.16032769 9 -6 9 C-8 7 -8 7 -8.125 3.875 C-8.08375 2.92625 -8.0425 1.9775 -8 1 C-7.01 1.33 -6.02 1.66 -5 2 C-4.3125 4.0625 -4.3125 4.0625 -4 6 C-2.35 6.33 -0.7 6.66 1 7 C0.67 4.69 0.34 2.38 0 0 Z " fill="#AD821E" transform="translate(73,153)"/>
<path d="M0 0 C1.98 1.32 3.96 2.64 6 4 C5.67 5.32 5.34 6.64 5 8 C4.01 8 3.02 8 2 8 C2 7.34 2 6.68 2 6 C1.01 6 0.02 6 -1 6 C-1.33 6.66 -1.66 7.32 -2 8 C-2 5 -2 5 0 2 C0 1.34 0 0.68 0 0 Z " fill="#23170F" transform="translate(75,88)"/>
<path d="M0 0 C1.98 0 3.96 0 6 0 C6 0.99 6 1.98 6 3 C6.66 3 7.32 3 8 3 C7.67 3.99 7.34 4.98 7 6 C6.34 5.67 5.68 5.34 5 5 C5 4.34 5 3.68 5 3 C3.8553125 3.495 3.8553125 3.495 2.6875 4 C0 5 0 5 -3 5 C-3 4.34 -3 3.68 -3 3 C-2.01 3 -1.02 3 0 3 C0 2.01 0 1.02 0 0 Z " fill="#160701" transform="translate(83,161)"/>
<path d="M0 0 C0.99 0.33 1.98 0.66 3 1 C3 1.99 3 2.98 3 4 C2.34 4 1.68 4 1 4 C1 5.32 1 6.64 1 8 C-0.32 8 -1.64 8 -3 8 C-3.1875 5.125 -3.1875 5.125 -3 2 C-2.01 1.34 -1.02 0.68 0 0 Z " fill="#F77C06" transform="translate(117,75)"/>
<path d="M0 0 C-0.33 2.97 -0.66 5.94 -1 9 C-1.99 8.01 -2.98 7.02 -4 6 C-4.66 6 -5.32 6 -6 6 C-6.33 6.66 -6.66 7.32 -7 8 C-6.62952882 5.25851328 -6.31412056 3.41406801 -4.625 1.1875 C-3 0 -3 0 0 0 Z " fill="#242325" transform="translate(67,72)"/>
<path d="M0 0 C0 2.97 0 5.94 0 9 C-0.66 7.68 -1.32 6.36 -2 5 C-3.98491642 5.26676204 -3.98491642 5.26676204 -6 6 C-6.33 6.99 -6.66 7.98 -7 9 C-7.3125 6.75 -7.3125 6.75 -7 4 C-2.89189189 0 -2.89189189 0 0 0 Z " fill="#ECD32D" transform="translate(123,103)"/>
<path d="M0 0 C0.33 0 0.66 0 1 0 C1.52071728 4.29591755 0.19647717 6.43483513 -2.04296875 10.01953125 C-3.72209237 13.4942891 -3.82721989 17.19019857 -4 21 C-4.33 21 -4.66 21 -5 21 C-5.79810624 12.82384493 -3.82626548 7.187913 0 0 Z " fill="#B59124" transform="translate(74,56)"/>
<path d="M0 0 C0.99 0.33 1.98 0.66 3 1 C3 1.99 3 2.98 3 4 C5.475 4.99 5.475 4.99 8 6 C7.67 6.66 7.34 7.32 7 8 C4.03 7.01 1.06 6.02 -2 5 C-2 3.68 -2 2.36 -2 1 C-1.34 0.67 -0.68 0.34 0 0 Z " fill="#C9A138" transform="translate(87,104)"/>
<path d="M0 0 C0.66 0.33 1.32 0.66 2 1 C2.48492623 7.42527261 2.48492623 7.42527261 0.3125 10 C-2.55639535 11.2406034 -4.05641676 10.89942821 -7 10 C-7 9.67 -7 9.34 -7 9 C-5.02 9 -3.04 9 -1 9 C-1.020625 8.071875 -1.04125 7.14375 -1.0625 6.1875 C-1 3 -1 3 0 0 Z " fill="#D39D2E" transform="translate(76,152)"/>
<path d="M0 0 C1.32 0 2.64 0 4 0 C4.33 1.98 4.66 3.96 5 6 C4.34 6 3.68 6 3 6 C3 5.34 3 4.68 3 4 C2.34 4 1.68 4 1 4 C0.67 4.99 0.34 5.98 0 7 C-0.33 7 -0.66 7 -1 7 C-0.67 4.69 -0.34 2.38 0 0 Z " fill="#DFC240" transform="translate(84,150)"/>
<path d="M0 0 C1.66666667 0 3.33333333 0 5 0 C5 2.64 5 5.28 5 8 C4.34 7.34 3.68 6.68 3 6 C2.01 6.66 1.02 7.32 0 8 C0 5.36 0 2.72 0 0 Z " fill="#F69D03" transform="translate(117,115)"/>
<path d="M0 0 C0.33 0.66 0.66 1.32 1 2 C-0.21484375 4.6015625 -0.21484375 4.6015625 -1.9375 7.625 C-2.78634766 9.12933594 -2.78634766 9.12933594 -3.65234375 10.6640625 C-4.09707031 11.43492188 -4.54179688 12.20578125 -5 13 C-6.09322722 9.64645165 -5.98722809 8.96296146 -4.75 5.375 C-3 2 -3 2 0 0 Z " fill="#1E1302" transform="translate(94,30)"/>
<path d="M0 0 C0.66 0.99 1.32 1.98 2 3 C1.01 4.98 0.02 6.96 -1 9 C-1.66 9 -2.32 9 -3 9 C-3 8.34 -3 7.68 -3 7 C-3.66 7 -4.32 7 -5 7 C-5 6.34 -5 5.68 -5 5 C-4.34 5 -3.68 5 -3 5 C-2.5359375 4.0409375 -2.5359375 4.0409375 -2.0625 3.0625 C-1 1 -1 1 0 0 Z " fill="#1A1C22" transform="translate(121,84)"/>
<path d="M0 0 C1.9375 0.6875 1.9375 0.6875 4 2 C4.75 4.625 4.75 4.625 5 7 C2.03 6.505 2.03 6.505 -1 6 C-0.67 4.02 -0.34 2.04 0 0 Z " fill="#0F0B0A" transform="translate(122,96)"/>
<path d="M0 0 C1.5625 1.125 1.5625 1.125 3 3 C2.6875 6.1875 2.6875 6.1875 2 9 C0.68 8.67 -0.64 8.34 -2 8 C-1.125 1.125 -1.125 1.125 0 0 Z " fill="#FCD005" transform="translate(93,39)"/>
<path d="M0 0 C0 3.96 0 7.92 0 12 C-1.65 12 -3.3 12 -5 12 C-3.68 11.67 -2.36 11.34 -1 11 C-1 8.36 -1 5.72 -1 3 C-2.32 3 -3.64 3 -5 3 C-5.33 3.66 -5.66 4.32 -6 5 C-6 4.01 -6 3.02 -6 2 C-2.25 0 -2.25 0 0 0 Z " fill="#EF9E27" transform="translate(100,120)"/>
<path d="M0 0 C0 1.98 0 3.96 0 6 C-0.61875 5.79375 -1.2375 5.5875 -1.875 5.375 C-2.57625 5.25125 -3.2775 5.1275 -4 5 C-4.66 5.66 -5.32 6.32 -6 7 C-5.6875 4.625 -5.6875 4.625 -5 2 C-2 0 -2 0 0 0 Z " fill="#F6A70B" transform="translate(88,119)"/>
<path d="M0 0 C0.99 0.33 1.98 0.66 3 1 C2.01 1.495 2.01 1.495 1 2 C0.87625 2.639375 0.7525 3.27875 0.625 3.9375 C0 6 0 6 -2.0625 7.25 C-3.0215625 7.62125 -3.0215625 7.62125 -4 8 C-4 7.34 -4 6.68 -4 6 C-5.32 6.33 -6.64 6.66 -8 7 C-7.67 6.34 -7.34 5.68 -7 5 C-6.34 5 -5.68 5 -5 5 C-4.67 4.34 -4.34 3.68 -4 3 C-2.68 3.33 -1.36 3.66 0 4 C0 2.68 0 1.36 0 0 Z " fill="#25190A" transform="translate(84,103)"/>
<path d="M0 0 C1.32 0.33 2.64 0.66 4 1 C4 2.32 4 3.64 4 5 C2.02 5.33 0.04 5.66 -2 6 C-1.34 4.02 -0.68 2.04 0 0 Z " fill="#CFA936" transform="translate(123,90)"/>
<path d="M0 0 C2.64 0 5.28 0 8 0 C8.33 1.65 8.66 3.3 9 5 C8.34 4.34 7.68 3.68 7 3 C5.01178687 2.60235737 3.01055661 2.26224651 1 2 C0.67 2.99 0.34 3.98 0 5 C0 3.35 0 1.7 0 0 Z " fill="#ECD24B" transform="translate(53,151)"/>
<path d="M0 0 C2.475 0.495 2.475 0.495 5 1 C4.67 2.32 4.34 3.64 4 5 C2.68 5 1.36 5 0 5 C0 3.35 0 1.7 0 0 Z " fill="#D39825" transform="translate(69,114)"/>
<path d="M0 0 C0.66 1.32 1.32 2.64 2 4 C1.34 4 0.68 4 0 4 C0.33 4.99 0.66 5.98 1 7 C0.01 7.66 -0.98 8.32 -2 9 C-2.66 8.67 -3.32 8.34 -4 8 C-4 7.34 -4 6.68 -4 6 C-3.34 5.67 -2.68 5.34 -2 5 C-2 4.01 -2 3.02 -2 2 C-1.34 1.34 -0.68 0.68 0 0 Z " fill="#2B240E" transform="translate(121,96)"/>
<path d="M0 0 C-0.33 0.99 -0.66 1.98 -1 3 C-2.65 3 -4.3 3 -6 3 C-6.33 4.65 -6.66 6.3 -7 8 C-7.66 7.34 -8.32 6.68 -9 6 C-6.54625122 1.21518987 -6.54625122 1.21518987 -3.9375 0.1875 C-2 0 -2 0 0 0 Z " fill="#281802" transform="translate(116,98)"/>
<path d="M0 0 C0.33 0.99 0.66 1.98 1 3 C-0.75 5.0625 -0.75 5.0625 -3 7 C-5.25 6.75 -5.25 6.75 -7 6 C-6.34 4.68 -5.68 3.36 -5 2 C-4.67 2.66 -4.34 3.32 -4 4 C-2.68 2.68 -1.36 1.36 0 0 Z " fill="#E9C11D" transform="translate(113,49)"/>
<path d="M0 0 C0.66 0 1.32 0 2 0 C2.33 0.66 2.66 1.32 3 2 C3.99 2.66 4.98 3.32 6 4 C1.38 4 -3.24 4 -8 4 C-8 3.67 -8 3.34 -8 3 C-6.865625 2.690625 -5.73125 2.38125 -4.5625 2.0625 C-1.21224901 1.37075469 -1.21224901 1.37075469 0 0 Z " fill="#3D2304" transform="translate(77,160)"/>
<path d="M0 0 C0.66 0 1.32 0 2 0 C2 0.66 2 1.32 2 2 C2.66 2 3.32 2 4 2 C4.33 1.34 4.66 0.68 5 0 C5.33 1.32 5.66 2.64 6 4 C5.01 3.67 4.02 3.34 3 3 C3 3.66 3 4.32 3 5 C1.68 5 0.36 5 -1 5 C-0.67 3.35 -0.34 1.7 0 0 Z " fill="#825C0C" transform="translate(85,154)"/>
<path d="M0 0 C2.97 0.99 5.94 1.98 9 3 C9 3.66 9 4.32 9 5 C6.03 4.67 3.06 4.34 0 4 C0 2.68 0 1.36 0 0 Z " fill="#190C01" transform="translate(92,155)"/>
<path d="M0 0 C1.65 1.32 3.3 2.64 5 4 C2 6 2 6 -2 6 C-1.34 4.02 -0.68 2.04 0 0 Z " fill="#101017" transform="translate(93,114)"/>
<path d="M0 0 C0.66 0 1.32 0 2 0 C2.69965443 1.26418246 3.38434763 2.53665402 4.0625 3.8125 C4.63677734 4.87404297 4.63677734 4.87404297 5.22265625 5.95703125 C6 8 6 8 5 11 C3.5393715 8.35261084 3 7.10551666 3 4 C2.01 4 1.02 4 0 4 C0 2.68 0 1.36 0 0 Z " fill="#CAB82D" transform="translate(115,43)"/>
<path d="M0 0 C2.475 0.495 2.475 0.495 5 1 C5 1.66 5 2.32 5 3 C3.68 3 2.36 3 1 3 C1 5.97 1 8.94 1 12 C0.67 12 0.34 12 0 12 C0 8.04 0 4.08 0 0 Z " fill="#4D340A" transform="translate(69,120)"/>
<path d="M0 0 C0.66 0.66 1.32 1.32 2 2 C-0.125 4.0625 -0.125 4.0625 -3 6 C-6.3125 5.75 -6.3125 5.75 -9 5 C-9 4.67 -9 4.34 -9 4 C-7.6078125 3.8453125 -7.6078125 3.8453125 -6.1875 3.6875 C-2.96745642 2.9929808 -1.97420135 2.52259061 0 0 Z " fill="#E07301" transform="translate(108,65)"/>
<path d="M0 0 C0.33 0.66 0.66 1.32 1 2 C0.06553465 4.03144641 -0.93224776 6.03533587 -2 8 C-2.99 7.34 -3.98 6.68 -5 6 C-3.63016497 2.83884224 -3.0109362 2.0072908 0 0 Z " fill="#F98A04" transform="translate(92,58)"/>
<path d="M0 0 C0.66 0.33 1.32 0.66 2 1 C1.34 3.31 0.68 5.62 0 8 C-0.99 8 -1.98 8 -3 8 C-3 6.68 -3 5.36 -3 4 C-2.01 4 -1.02 4 0 4 C0 2.68 0 1.36 0 0 Z " fill="#2A1601" transform="translate(64,153)"/>
<path d="M0 0 C0.7425 0.0825 1.485 0.165 2.25 0.25 C1.26 0.91 0.27 1.57 -0.75 2.25 C-0.42 3.57 -0.09 4.89 0.25 6.25 C-0.41 6.25 -1.07 6.25 -1.75 6.25 C-1.75 5.59 -1.75 4.93 -1.75 4.25 C-3.4 4.25 -5.05 4.25 -6.75 4.25 C-3.42692308 0.31153846 -3.42692308 0.31153846 0 0 Z " fill="#31220A" transform="translate(111.75,105.75)"/>
<path d="M0 0 C0.66 0.99 1.32 1.98 2 3 C1.67 3.99 1.34 4.98 1 6 C0.01 6 -0.98 6 -2 6 C-2.33 6.99 -2.66 7.98 -3 9 C-3.66 8.67 -4.32 8.34 -5 8 C-3.35 5.36 -1.7 2.72 0 0 Z " fill="#DFC021" transform="translate(91,38)"/>
<path d="M0 0 C0.33 1.32 0.66 2.64 1 4 C-0.98 4 -2.96 4 -5 4 C-5 3.01 -5 2.02 -5 1 C-3.35 0.67 -1.7 0.34 0 0 Z " fill="#F47A04" transform="translate(110,127)"/>
<path d="M0 0 C1.66666667 3.33333333 3.33333333 6.66666667 5 10 C3.0625 9.625 3.0625 9.625 1 9 C-0.4783226 6.04335481 -0.06032783 3.25770263 0 0 Z " fill="#382002" transform="translate(69,77)"/>
<path d="M0 0 C1.32 0 2.64 0 4 0 C3.67 1.32 3.34 2.64 3 4 C2.34 4 1.68 4 1 4 C0.67 4.66 0.34 5.32 0 6 C-1.125 2.25 -1.125 2.25 0 0 Z " fill="#BBA439" transform="translate(136,150)"/>
<path d="M0 0 C2.00720923 0.28674418 4.0085944 0.61866701 6 1 C5.071875 1.3403125 5.071875 1.3403125 4.125 1.6875 C1.38589791 3.37929835 0.94975528 4.99244161 0 8 C-0.33 8 -0.66 8 -1 8 C-1.04241723 5.66705225 -1.04092937 3.33297433 -1 1 C-0.67 0.67 -0.34 0.34 0 0 Z " fill="#DBBD3D" transform="translate(67,151)"/>
<path d="M0 0 C0.99 0 1.98 0 3 0 C3 1.98 3 3.96 3 6 C1.35 6 -0.3 6 -2 6 C-1.67 5.01 -1.34 4.02 -1 3 C-1 3.66 -1 4.32 -1 5 C-0.01 5 0.98 5 2 5 C2 4.34 2 3.68 2 3 C1.34 3 0.68 3 0 3 C0 2.01 0 1.02 0 0 Z " fill="#EF8603" transform="translate(85,125)"/>
<path d="M0 0 C0 3.3 0 6.6 0 10 C-0.33 10 -0.66 10 -1 10 C-1 7.69 -1 5.38 -1 3 C-2.32 2.67 -3.64 2.34 -5 2 C-2 0 -2 0 0 0 Z " fill="#E0B939" transform="translate(112,112)"/>
<path d="M0 0 C1.46726798 3.81489674 0.43336419 6.29011622 -1 10 C-1.66 10 -2.32 10 -3 10 C-2.67 7.69 -2.34 5.38 -2 3 C-1.34 3 -0.68 3 0 3 C0 2.01 0 1.02 0 0 Z " fill="#AF7518" transform="translate(121,66)"/>
<path d="M0 0 C0.33 0 0.66 0 1 0 C1.25 3.3125 1.25 3.3125 1 7 C-0.32 7.99 -1.64 8.98 -3 10 C-2.01 6.7 -1.02 3.4 0 0 Z " fill="#F18E09" transform="translate(118,67)"/>
<path d="M0 0 C0.33 0.99 0.66 1.98 1 3 C1.99 3.33 2.98 3.66 4 4 C3.34 5.32 2.68 6.64 2 8 C1.34 8 0.68 8 0 8 C0 5.36 0 2.72 0 0 Z " fill="#3B2800" transform="translate(109,45)"/>
<path d="M0 0 C0.66 0.33 1.32 0.66 2 1 C0.02 5.455 0.02 5.455 -2 10 C-2.66 8.68 -3.32 7.36 -4 6 C-3.01 5.67 -2.02 5.34 -1 5 C-0.67 3.35 -0.34 1.7 0 0 Z " fill="#1E1200" transform="translate(80,42)"/>
<path d="M0 0 C2.3125 -0.3125 2.3125 -0.3125 5 0 C6.8125 2.5 6.8125 2.5 8 5 C5 5 5 5 2.3125 2.5 C1.549375 1.675 0.78625 0.85 0 0 Z " fill="#221A03" transform="translate(96,23)"/>
<path d="M0 0 C2.0625 0.4375 2.0625 0.4375 4 1 C2.625 3.5 2.625 3.5 1 6 C0.34 6 -0.32 6 -1 6 C-1.042721 4.33388095 -1.04063832 2.66617115 -1 1 C-0.67 0.67 -0.34 0.34 0 0 Z " fill="#3C2503" transform="translate(69,153)"/>
<path d="M0 0 C0.66 0.33 1.32 0.66 2 1 C1.67 2.98 1.34 4.96 1 7 C-2 3.25 -2 3.25 -2 1 C-1.34 0.67 -0.68 0.34 0 0 Z " fill="#170D05" transform="translate(90,149)"/>
<path d="M0 0 C1.65 0 3.3 0 5 0 C5 1.65 5 3.3 5 5 C2 4 2 4 0.8125 1.9375 C0.544375 1.298125 0.27625 0.65875 0 0 Z " fill="#F8BD0E" transform="translate(106,115)"/>
<path d="M0 0 C0.33 0.99 0.66 1.98 1 3 C0.67 3.66 0.34 4.32 0 5 C-1.32 5 -2.64 5 -4 5 C-4 4.01 -4 3.02 -4 2 C-2.68 1.34 -1.36 0.68 0 0 Z " fill="#FACE04" transform="translate(121,107)"/>
<path d="M0 0 C1.32 0 2.64 0 4 0 C4 1.32 4 2.64 4 4 C2.35 4 0.7 4 -1 4 C-0.67 2.68 -0.34 1.36 0 0 Z " fill="#E2B32A" transform="translate(110,102)"/>
<path d="M0 0 C1.32 0.33 2.64 0.66 4 1 C1.1875 3.0625 1.1875 3.0625 -2 5 C-2.99 4.67 -3.98 4.34 -5 4 C-4.360625 3.71125 -3.72125 3.4225 -3.0625 3.125 C-0.84793921 2.17176549 -0.84793921 2.17176549 0 0 Z " fill="#D07423" transform="translate(110,87)"/>
<path d="M0 0 C0.66 0 1.32 0 2 0 C2.33 0.99 2.66 1.98 3 3 C1.68 4.32 0.36 5.64 -1 7 C-1.33 6.34 -1.66 5.68 -2 5 C-1.0625 2.375 -1.0625 2.375 0 0 Z " fill="#F28200" transform="translate(77,64)"/>
</svg>
